<?xml version="1.0" encoding="utf-8"?>
<!-- Generator: Adobe Illustrator 26.5.0, SVG Export Plug-In . SVG Version: 6.00 Build 0)  -->
<svg version="1.1" id="Calque_1" xmlns="http://www.w3.org/2000/svg" xmlns:xlink="http://www.w3.org/1999/xlink" x="0px" y="0px"
	 viewBox="0 0 110 95.9" style="enable-background:new 0 0 110 95.9;" xml:space="preserve">
<style type="text/css">
	.st0{fill:#F0F0F0;}
	.st1{fill:#EDEDED;}
	.st2{fill:#4ACCD4;}
</style>
<g id="Calque_2_00000072242424698694496510000008904367947025742227_">
	<rect class="st0" width="110" height="95.9"/>
</g>
<g id="uuid-9884af53-bda2-44dd-b4f3-c97d76cbd288">
	<g id="uuid-553929a9-5cff-4ef7-9877-1d29226a4584">
		<rect x="7" y="5.8" class="st1" width="95.9" height="84.3"/>
		<g>
			<g>
				<path class="st2" d="M76.6,50.5c7.2,6.5,10.4,12.4,8.7,15.3c-1.1,1.9-4,2.3-6.2,2.3c-3.1,0-7.1-0.8-11.4-2.2
					c0.6-3,1-6.2,1.2-9.6C71.8,54.4,74.4,52.4,76.6,50.5z"/>
				<path class="st2" d="M56.3,15.6c3.4,0,6.9,5.7,9,15.2c-2.9,1-5.9,2.3-9,3.8c-3.1-1.5-6.1-2.7-9-3.8C49.5,21.3,53,15.6,56.3,15.6
					z"/>
				<path class="st2" d="M43.8,56.3c0.2,3.4,0.7,6.6,1.2,9.6c-4.3,1.4-8.2,2.2-11.4,2.2c-2.3,0-5.1-0.4-6.2-2.3
					c-1.3-2.3,0.3-6.3,4.5-11.1c1.2-1.4,2.7-2.8,4.2-4.3C38.3,52.5,41,54.4,43.8,56.3L43.8,56.3z"/>
			</g>
			<g>
				<path d="M76.9,47.9c7.6,7,11.3,13.7,8.9,17.8c-0.9,1.5-3,3.3-8,3.3c-3.3,0-7.4-0.8-11.8-2.2C63.8,76.9,59.6,83.5,55,83.5
					s-8.7-6.6-10.9-16.6c-4.4,1.4-8.5,2.2-11.8,2.2c-5.1,0-7.2-1.8-8.1-3.3c-1.8-3.1-0.1-7.9,4.7-13.5c1.2-1.4,2.7-2.9,4.2-4.3
					c-1.6-1.4-3-2.9-4.2-4.3c-4.9-5.6-6.5-10.3-4.7-13.5c0.9-1.5,3-3.3,8.1-3.3c3.3,0,7.4,0.8,11.8,2.2C46.4,19,50.4,12.5,55,12.5
					s8.7,6.6,10.9,16.6c4.4-1.4,8.5-2.2,11.8-2.2c5.1,0,7.2,1.8,8.1,3.3C88.1,34.2,84.4,40.9,76.9,47.9L76.9,47.9z M75.4,46.5
					c7.2-6.5,10.4-12.4,8.7-15.3c-1.1-1.9-4-2.3-6.2-2.3c-3.1,0-7.1,0.8-11.4,2.2c0.6,3,1,6.2,1.2,9.6
					C70.4,42.6,73.1,44.5,75.4,46.5z M84.1,64.6c1.7-2.9-1.5-8.8-8.7-15.4c-2.3,2-4.9,4-7.7,5.9c-0.2,3.4-0.7,6.6-1.2,9.6
					c4.3,1.4,8.2,2.2,11.4,2.2C80.1,66.9,82.9,66.5,84.1,64.6z M73.8,47.9c-1.8-1.5-3.8-3.1-6-4.6c0.1,1.5,0.1,3,0.1,4.6
					s0,3.1-0.1,4.6C69.9,51,71.9,49.4,73.8,47.9z M65.8,47.9c0-2.1-0.1-4.1-0.2-6.1c-1.6-1.1-3.4-2.2-5.2-3.2s-3.6-2-5.4-2.9
					c-1.8,0.9-3.6,1.9-5.4,2.9c-1.8,1-3.5,2.1-5.2,3.2c-0.1,2-0.2,4-0.2,6.1s0.1,4.1,0.2,6.1c1.7,1.1,3.4,2.2,5.2,3.2s3.6,2,5.4,2.9
					c1.8-0.9,3.6-1.9,5.4-2.9c1.8-1.1,3.6-2.1,5.2-3.2C65.8,52,65.8,50,65.8,47.9z M65.4,39.2c-0.2-2.7-0.6-5.2-1-7.5
					c-2.3,0.8-4.6,1.8-7,2.8c1.3,0.7,2.7,1.4,4,2.2C62.8,37.6,64.1,38.4,65.4,39.2z M64.4,64.1c0.4-2.3,0.8-4.8,1-7.5
					c-1.3,0.8-2.6,1.6-4,2.4c-1.3,0.8-2.7,1.5-4,2.2C59.8,62.3,62.1,63.3,64.4,64.1z M64,29.6c-2.1-9.5-5.6-15.2-9-15.2
					s-6.9,5.7-9,15.2c2.9,1,5.9,2.3,9,3.8C58,31.9,61.1,30.6,64,29.6z M55,81.4c3.4,0,6.9-5.7,9-15.2c-2.9-1-5.9-2.3-9-3.8
					c-3.1,1.5-6.1,2.7-9,3.8C48.1,75.7,51.6,81.4,55,81.4z M48.6,36.8c1.4-0.8,2.7-1.5,4-2.2c-2.4-1.1-4.7-2.1-7-2.8
					c-0.4,2.3-0.8,4.8-1,7.5C46,38.4,47.2,37.6,48.6,36.8L48.6,36.8z M52.6,61.2c-1.3-0.7-2.7-1.4-4-2.2c-1.4-0.8-2.7-1.6-4-2.4
					c0.2,2.7,0.6,5.2,1,7.5C48,63.3,50.2,62.3,52.6,61.2L52.6,61.2z M42.5,40.6c0.2-3.4,0.7-6.6,1.2-9.6c-4.3-1.4-8.2-2.2-11.4-2.2
					c-2.3,0-5.1,0.4-6.2,2.3c-1.3,2.3,0.3,6.3,4.5,11.1c1.2,1.4,2.7,2.8,4.2,4.3C37,44.5,39.6,42.5,42.5,40.6L42.5,40.6z M43.6,64.8
					c-0.6-3-1-6.2-1.2-9.6c-2.8-1.9-5.4-3.9-7.7-5.9c-1.6,1.4-3,2.8-4.2,4.3c-4.2,4.7-5.8,8.8-4.5,11.1c1.1,1.9,4,2.3,6.2,2.3
					C35.4,66.9,39.3,66.1,43.6,64.8L43.6,64.8z M42.1,47.9c0-1.6,0-3.1,0.1-4.6c-2.1,1.5-4.1,3-6,4.6c1.8,1.6,3.8,3.1,6,4.6
					C42.2,51,42.1,49.5,42.1,47.9z"/>
				<path d="M55,41.4c3.6,0,6.5,2.9,6.5,6.5s-2.9,6.5-6.5,6.5s-6.5-2.9-6.5-6.5S51.5,41.4,55,41.4z"/>
			</g>
		</g>
	</g>
</g>
</svg>
