<?xml version="1.0" encoding="utf-8"?>
<!-- Generator: Adobe Illustrator 26.5.0, SVG Export Plug-In . SVG Version: 6.00 Build 0)  -->
<svg version="1.1" id="uuid-d3c0d783-4996-4dd1-a49d-772451fd6e91"
	 xmlns="http://www.w3.org/2000/svg" xmlns:xlink="http://www.w3.org/1999/xlink" x="0px" y="0px" viewBox="0 0 110 98"
	 style="enable-background:new 0 0 110 98;" xml:space="preserve">
<style type="text/css">
	.st0{fill:#4ACCD4;}
	.st1{clip-path:url(#SVGID_00000012451091651655685760000006704975067658549891_);}
	.st2{fill:#FFFFFF;}
</style>
<g id="uuid-999a0431-3454-4d66-99a6-9c72e65249fa">
	<rect class="st0" width="110" height="98"/>
	<g>
		<g>
			<defs>
				<rect id="SVGID_1_" width="110" height="98"/>
			</defs>
			<clipPath id="SVGID_00000070823748925324648860000005641882706772299685_">
				<use xlink:href="#SVGID_1_"  style="overflow:visible;"/>
			</clipPath>
			<g style="clip-path:url(#SVGID_00000070823748925324648860000005641882706772299685_);">
				<path class="st2" d="M15.8,37.4c-0.2,0-0.3,0-0.6-0.1c-0.5-0.3-0.7-0.8-0.5-1.3l3.6-9.5l-7.9-0.3c-0.3,0-0.7-0.2-0.9-0.5
					c-0.2-0.3-0.2-0.7,0-1l8.6-16.8c0.2-0.4,0.6-0.6,1-0.6l10.5,0.3c0.5,0,0.8,0.3,0.9,0.6c0.1,0.4,0.1,0.8-0.2,1.1l-9.9,11l8.2-0.3
					c0.5,0,0.8,0.2,1,0.6c0.2,0.4,0.1,0.8-0.1,1.1L16.6,37C16.4,37.3,16.2,37.4,15.8,37.4L15.8,37.4z M12.3,24l7.7,0.3
					c0.3,0,0.7,0.2,0.8,0.5c0.2,0.3,0.2,0.6,0.1,1L18.9,31l7.6-8.9l-8.4,0.3c-0.5,0-0.8-0.2-1-0.6c-0.2-0.4-0.1-0.8,0.2-1.1
					L27.4,9.6l-7.7-0.4L12.3,24L12.3,24z"/>
				<path class="st2" d="M61.3,44.9c-0.1,0-0.3,0-0.5,0c-0.3-0.1-0.7-0.5-0.7-0.9l0.5-8.1l-6.1,1.6c-0.2,0.1-0.6,0-0.8-0.2
					c-0.2-0.2-0.3-0.5-0.2-0.8l2.6-14.9c0.1-0.3,0.2-0.6,0.6-0.7l8.1-2.2c0.3-0.1,0.7,0,0.9,0.3c0.2,0.2,0.2,0.6,0.1,0.9l-5,10.7
					l6.3-2.1c0.3-0.1,0.7,0,0.9,0.2c0.2,0.2,0.2,0.6,0.1,0.9l-6.3,14.8C61.8,44.6,61.5,44.8,61.3,44.9L61.3,44.9z M55.6,35.5l6-1.5
					c0.2-0.1,0.6,0,0.8,0.2c0.2,0.2,0.3,0.4,0.3,0.7l-0.2,4.4l3.7-8.5L59.8,33c-0.3,0.1-0.7,0-0.9-0.2s-0.2-0.6-0.1-0.9l5-10.8
					L58,22.7L55.6,35.5L55.6,35.5z"/>
				<path class="st2" d="M7.7,61c-0.1-0.1-0.2-0.3-0.2-0.5c-0.1-0.5,0.1-1,0.6-1.2l8.6-4l-5-5.5c-0.2-0.2-0.3-0.6-0.2-0.9
					c0.1-0.3,0.3-0.6,0.7-0.7l16.8-5.5c0.3-0.1,0.8,0,1,0.3l6.9,7.4c0.2,0.3,0.3,0.7,0.2,1.1c-0.1,0.4-0.5,0.6-0.9,0.6l-13.9,0.7
					l5.7,5.4c0.3,0.3,0.3,0.7,0.2,1.1c-0.1,0.4-0.5,0.6-0.9,0.7L8.5,61.4C8.2,61.4,7.9,61.2,7.7,61L7.7,61z M14.1,49.6L19,55
					c0.2,0.2,0.3,0.6,0.2,0.9c-0.1,0.3-0.2,0.6-0.6,0.7L14,58.8L24.9,58l-5.7-5.5c-0.3-0.3-0.3-0.7-0.2-1.1c0.1-0.4,0.5-0.6,0.9-0.7
					l14.1-0.7L29,44.7L14.1,49.6L14.1,49.6z"/>
				<path class="st2" d="M89.9,78.2c27.8,0,50.5-23,50.5-51.2c0-15-6.5-29.2-17.8-38.9c-3.1-2.7-6.2-8-6.2-12.1v-11.1h4.8V-61
					c0-9.7-4.1-18.5-10.7-24.4c-3-4.8-10.9-8.1-20.4-8.2c-0.1,0-0.2,0-0.3,0h-0.1c-0.1,0-0.1,0-0.2,0c-10.7,0-19.4,3.9-21.8,9.4
					c-2.8,2.8-4.9,6.1-6.5,9.7l-0.8-0.1l-0.2,1.8h0.3c-1.4,3.7-2.1,7.6-2.1,11.6v25.9h4.8v11.1c0,4.2-3.2,9.5-6.3,12.1
					C45.8-2.2,39.4,11.9,39.4,26.9C39.4,55.2,62.1,78.2,89.9,78.2L89.9,78.2z M89.6-90.4c7.3,0,13.4,1.8,13.6,4.1H75.9
					C76.2-88.6,82.2-90.4,89.6-90.4z M69-79.9H111c2.8,3.3,4.7,7.2,5.7,11.5l-51.6-5.8C66.2-76.3,67.5-78.2,69-79.9z M64.4-72.4
					l52.8,5.9c0.3,1.7,0.5,3.5,0.5,5.3v4.1l-55.3-6.2C62.6-66.5,63.2-69.5,64.4-72.4z M62.2-61.1c0-0.1,0-0.2,0-0.3l55.3,6.2
					l0.1-1.5v10.9l-55.5-6.2V-61.1L62.2-61.1z M62.2-39v-11.2l55.3,6.2l0.1-1.5v6.5H62.2z M100.1,32.6c-1.4-0.5-2.9-0.8-4.2-0.8
					c-1.8,0-3.6,0.4-5.2,1.1c-1.4-0.7-3-1.1-4.6-1.1c-1,0-2.1,0.2-3.1,0.5c-0.1-0.9-0.5-1.8-1.1-2.8c-1.4-1.7-3.9-3.1-6.8-3.1
					c-0.2,0-0.6,0-0.9,0.1l8.5-29.6C84.1,0,87.1,2,90.6,2c3.6,0,6.6-2.1,7.9-5.3l9.9,29.8c-0.1,0-0.2,0-0.3,0
					c-2.9,0-5.4,1.3-6.8,3.1C100.6,30.5,100.3,31.6,100.1,32.6L100.1,32.6z M92.5,35.7c1.9,2.7,1.1,6.1-1.7,8c-3.1-1.9-4-5.3-1.8-8
					c0.5-0.6,1.1-1.1,1.8-1.6C91.4,34.5,92,35.1,92.5,35.7z M83.9-6.7v-28.6h13.8v28.6c0,3.9-3.1,6.9-6.9,6.9
					C87,0.2,83.9-2.9,83.9-6.7z M59.6-9.2c3.8-3.3,7.6-9.4,7.6-15v-11.1H82v28.4l-9.9,34.2l0.6,0.2l0.1,0.2c0.1,0,0.2-0.1,0.5-0.1
					l0.7,0.2l0.1-0.4c3-0.4,5.7,0.9,7.2,2.7c0.7,0.8,0.9,1.7,0.9,2.6c-0.1,0-0.2,0.1-0.3,0.1l0.2,0.4C82,33.4,82,33.7,81.8,34
					l0.8,0.5c0.2-0.4,0.3-0.8,0.5-1.2c2.2-0.9,4.7-0.8,6.8,0.2c-0.7,0.5-1.4,1-1.9,1.7c-2.5,3.2-1.4,7.1,2.4,9.3l0.2,0.4
					c0.1,0,0.1-0.1,0.2-0.1c0.1,0,0.1,0.1,0.2,0.1l0.5-0.6c3.2-2.1,4.1-6.1,1.9-9.2c-0.5-0.6-1-1.2-1.7-1.6c2.5-1.1,5.7-1.1,8.4,0
					l0.1-0.1c0.1,0.4,0.2,0.7,0.5,1.1l0.8-0.5c-0.7-1.1-0.5-2.6,0.6-3.9c1.4-1.6,3.9-3,6.6-2.8l0.1,0.5l0.9-0.3
					c0.2,0,0.5,0.1,0.7,0.2l0.1-0.4l0,0l0.1-0.4c-0.1,0-0.2,0-0.3-0.1L99.1-6.8v-28.4h13.5v11.1c0,5.6,3.8,11.7,7.6,15
					c10.4,9.1,16.5,22.2,16.5,36c0,26.2-21.1,47.5-46.9,47.5S43.1,53.1,43.1,26.9C43.1,13.1,49.2-0.1,59.6-9.2L59.6-9.2z"/>
				<g>
					<path class="st2" d="M54.2,64.1c-19.7,20-19.7,52.5,0,72.5c10.4,10.6,25,16,39.8,14.8c4-0.3,10,1.1,12.9,4.1l7.8,7.9l-3.4,3.5
						l18.1,18.3c6.8,6.8,15.8,10.1,24.6,9.6c5.4,1.2,13.3-2,20.2-8.9c0.1-0.1,0.1-0.1,0.2-0.2c0,0,0-0.1,0.1-0.1l0.1-0.1
						c7.6-7.7,11-16.6,8.8-22.3c0-3.9-0.8-7.9-2.2-11.5l0.7-0.5l-1.1-1.4l-0.2,0.2c-1.6-3.6-3.8-6.8-6.6-9.8l-18.1-18.3l-3.4,3.5
						l-8-7.9c-3-3-4.4-9-4-13.1c1.1-15-4.1-29.6-14.7-40.2C106,44.1,73.9,44.1,54.2,64.1L54.2,64.1z M172.2,183
						c-5.2,5.3-10.8,8.3-12.5,6.8l19.4-19.6C180.4,172.2,177.4,177.8,172.2,183L172.2,183z M179.4,160.8l-29.8,30.1
						c-4.2-0.4-8.4-1.7-12.1-4l40.4-32.9C178.8,156.3,179.2,158.5,179.4,160.8z M177.4,152.3l-41.5,33.6c-1.4-1-2.8-2.1-4-3.4
						l-2.9-2.9l43.5-35.2C174.5,146.8,176.2,149.4,177.4,152.3L177.4,152.3z M171.1,142.7c0.1,0.1,0.1,0.1,0.2,0.2l-43.4,35.2
						l0.9,1.2l-7.6-7.7l43.5-35.3L171.1,142.7L171.1,142.7z M155.6,127.1l7.8,8L120,170.3l0.9,1.2l-4.6-4.6L155.6,127.1L155.6,127.1
						z M78.8,103.6c1.4-0.6,2.5-1.4,3.6-2.6c1.3-1.3,2.3-2.9,2.9-4.5c1.5-0.4,3-1.3,4.1-2.5c0.7-0.7,1.4-1.6,1.8-2.6
						c0.7,0.6,1.6,1,2.8,1.1c2.2,0.2,4.9-0.6,7-2.7c0.2-0.2,0.3-0.4,0.6-0.7l14.7,27.1c-3.1-1.1-6.6-0.5-9.2,2
						c-2.5,2.6-3.1,6.2-1.9,9.4l-27.6-14c0.1-0.1,0.1-0.1,0.2-0.2c1.9-2,2.9-4.8,2.6-7C80,105.3,79.5,104.3,78.8,103.6L78.8,103.6z
						 M82,96c-3.2-0.5-5-3.5-4.4-6.8c3.6-0.9,6.5,0.9,6.9,4.3c0.1,0.8,0,1.6-0.2,2.5C83.6,96,82.8,96.1,82,96z M117.8,119.7
						l19.9,20.2l-9.7,9.8l-19.9-20.2c-2.6-2.8-2.6-7.1,0-9.8C110.8,117,115.2,117,117.8,119.7z M136.7,104c-0.3,5,1.3,12,5.2,16
						l7.8,7.9l-10.5,10.6l-19.9-20l-16.8-31.3l-0.5,0.3l-0.2-0.1c-0.1,0.1-0.1,0.2-0.2,0.4l-0.7,0.4l0.2,0.4c-1.8,2.5-4.7,3.5-7,3.3
						c-1-0.1-1.8-0.5-2.4-1.1c0-0.1,0.1-0.2,0.1-0.3l-0.5-0.1c-0.1-0.2-0.3-0.5-0.3-0.8l-0.9,0.2c0.1,0.4,0.3,0.8,0.6,1.2
						c-0.9,2.2-2.8,4-4.9,4.7c0.2-0.9,0.2-1.7,0.2-2.6c-0.5-4-4-6.1-8.2-4.9l-0.5-0.1c0,0.1,0,0.2-0.1,0.3c-0.1,0-0.2,0.1-0.2,0.1
						l0.1,0.7c-0.8,3.9,1.4,7.2,5,7.9c0.8,0.1,1.6,0.1,2.3,0c-1,2.6-3.2,4.9-6,5.9v0.2c-0.3-0.2-0.7-0.4-1-0.5l-0.2,0.9
						c1.3,0.3,2.2,1.5,2.3,3.2c0.2,2.1-0.7,4.9-2.9,6.7l-0.5-0.2l-0.5,0.9c-0.2,0.1-0.3,0.3-0.6,0.4l0.2,0.4l0,0l0.2,0.4
						c0.1,0,0.2-0.1,0.2-0.2l31.4,15.9l19.8,20.1l-9.6,9.7l-7.8-7.9c-3.9-4-10.9-5.6-15.8-5.2c-13.8,1.1-27.2-3.9-36.8-13.7
						c-18.3-18.5-18.3-48.7,0-67.2s48-18.5,66.3,0C132.8,76.6,137.7,90.2,136.7,104L136.7,104z"/>
					<path class="st2" d="M25.6,184c-30.8,0-55.9-25.4-55.9-56.6s25.1-56.6,55.9-56.6s55.8,25.3,55.8,56.6S56.4,184,25.6,184z
						 M25.6,74.4c-28.9,0-52.2,23.8-52.2,53s23.5,53,52.2,53s52.2-23.8,52.2-53S54.3,74.4,25.6,74.4z"/>
				</g>
			</g>
		</g>
	</g>
</g>
</svg>
