<?xml version="1.0" encoding="utf-8"?>
<!-- Generator: Adobe Illustrator 26.5.0, SVG Export Plug-In . SVG Version: 6.00 Build 0)  -->
<svg version="1.1" id="uuid-55049851-c3a8-438f-8e0f-395d47fb4eea"
	 xmlns="http://www.w3.org/2000/svg" xmlns:xlink="http://www.w3.org/1999/xlink" x="0px" y="0px" viewBox="0 0 110 98"
	 style="enable-background:new 0 0 110 98;" xml:space="preserve">
<style type="text/css">
	.st0{fill:#4ACCD4;}
	.st1{fill:#F07F54;}
</style>
<g id="uuid-a0164f05-313d-4a03-aa1d-3ad9d7b53b0d">
	<rect class="st0" width="110" height="98"/>
	<g>
		<g>
			<g>
				<rect x="46" y="46.7" class="st1" width="1.7" height="6.8"/>
				<rect x="40.6" y="46.7" class="st1" width="1.7" height="6.8"/>
				<rect x="35.2" y="46.7" class="st1" width="1.7" height="6.8"/>
				<rect x="35.2" y="30.9" class="st1" width="1.7" height="6.8"/>
				<rect x="29.7" y="46.7" class="st1" width="1.7" height="6.8"/>
				<rect x="29.7" y="30.9" class="st1" width="1.7" height="6.8"/>
				<rect x="24.4" y="46.7" class="st1" width="1.7" height="6.8"/>
				<rect x="24.4" y="30.9" class="st1" width="1.7" height="6.8"/>
				<rect x="19" y="46.7" class="st1" width="1.7" height="6.8"/>
				<rect x="19" y="30.9" class="st1" width="1.7" height="6.8"/>
				<rect x="19" y="15" class="st1" width="1.7" height="6.8"/>
			</g>
			<g>
				<path d="M52.8,45.4V53c0,0.4-0.3,0.7-0.7,0.7h-1.3v1.8c0,0.4-0.3,0.7-0.7,0.7H14.4c-0.3,0-0.7-0.3-0.7-0.7V42.9
					c0-0.4,0.3-0.7,0.7-0.7h35.7c0.3,0,0.7,0.3,0.7,0.7v1.8h1.3C52.4,44.7,52.8,45,52.8,45.4L52.8,45.4z M51.4,52.3v-6.2h-1.3
					c-0.3,0-0.7-0.3-0.7-0.7v-1.8H15v11.2h34.3V53c0-0.4,0.3-0.7,0.7-0.7H51.4L51.4,52.3z"/>
				<path d="M52.8,29.5v7.6c0,0.4-0.3,0.7-0.7,0.7h-1.3v1.8c0,0.4-0.3,0.7-0.7,0.7H14.4c-0.3,0-0.7-0.3-0.7-0.7V27
					c0-0.4,0.3-0.7,0.7-0.7h35.7c0.3,0,0.7,0.3,0.7,0.7v1.8h1.3C52.4,28.8,52.8,29.1,52.8,29.5L52.8,29.5z M51.4,36.4v-6.2h-1.3
					c-0.3,0-0.7-0.3-0.7-0.7v-1.8H15v11.2h34.3v-1.8c0-0.4,0.3-0.7,0.7-0.7H51.4L51.4,36.4z"/>
				<path d="M52.8,13.7v7.6c0,0.4-0.3,0.7-0.7,0.7h-1.3v1.8c0,0.4-0.3,0.7-0.7,0.7H14.4c-0.3,0-0.7-0.3-0.7-0.7V11.2
					c0-0.4,0.3-0.7,0.7-0.7h35.7c0.3,0,0.7,0.3,0.7,0.7V13h1.3C52.4,13,52.8,13.3,52.8,13.7L52.8,13.7z M51.4,20.6v-6.2h-1.3
					c-0.3,0-0.7-0.3-0.7-0.7v-1.8H15v11.2h34.3v-1.8c0-0.4,0.3-0.7,0.7-0.7H51.4z"/>
				<path d="M48,45.1v8.1c0,0.4-0.3,0.7-0.7,0.7h-3c-0.3,0-0.7-0.3-0.7-0.7v-8.1c0-0.4,0.3-0.7,0.7-0.7h3C47.7,44.4,48,44.7,48,45.1
					z M46.6,52.6v-6.8h-1.7v6.8H46.6z"/>
				<path d="M42.5,45.1v8.1c0,0.4-0.3,0.7-0.7,0.7h-3c-0.3,0-0.7-0.3-0.7-0.7v-8.1c0-0.4,0.3-0.7,0.7-0.7h3
					C42.3,44.4,42.5,44.7,42.5,45.1z M41.2,52.6v-6.8h-1.7v6.8H41.2z"/>
				<path d="M37.2,45.1v8.1c0,0.4-0.3,0.7-0.7,0.7h-3c-0.3,0-0.7-0.3-0.7-0.7v-8.1c0-0.4,0.3-0.7,0.7-0.7h3
					C36.9,44.4,37.2,44.7,37.2,45.1z M35.8,52.6v-6.8h-1.7v6.8H35.8z"/>
				<path d="M37.2,29.3v8.1c0,0.4-0.3,0.7-0.7,0.7h-3c-0.3,0-0.7-0.3-0.7-0.7v-8.1c0-0.4,0.3-0.7,0.7-0.7h3
					C36.9,28.6,37.2,28.9,37.2,29.3z M35.8,36.7v-6.8h-1.7v6.8H35.8z"/>
				<path d="M31.8,45.1v8.1c0,0.4-0.3,0.7-0.7,0.7h-3c-0.3,0-0.7-0.3-0.7-0.7v-8.1c0-0.4,0.3-0.7,0.7-0.7h3
					C31.4,44.4,31.8,44.7,31.8,45.1z M30.4,52.6v-6.8h-1.7v6.8H30.4z"/>
				<path d="M31.8,29.3v8.1c0,0.4-0.3,0.7-0.7,0.7h-3c-0.3,0-0.7-0.3-0.7-0.7v-8.1c0-0.4,0.3-0.7,0.7-0.7h3
					C31.4,28.6,31.8,28.9,31.8,29.3z M30.4,36.7v-6.8h-1.7v6.8H30.4z"/>
				<path d="M26.4,45.1v8.1c0,0.4-0.3,0.7-0.7,0.7h-3c-0.3,0-0.7-0.3-0.7-0.7v-8.1c0-0.4,0.3-0.7,0.7-0.7h3
					C26,44.4,26.4,44.7,26.4,45.1z M25,52.6v-6.8h-1.7v6.8H25z"/>
				<path d="M26.4,29.3v8.1c0,0.4-0.3,0.7-0.7,0.7h-3c-0.3,0-0.7-0.3-0.7-0.7v-8.1c0-0.4,0.3-0.7,0.7-0.7h3
					C26,28.6,26.4,28.9,26.4,29.3z M25,36.7v-6.8h-1.7v6.8H25z"/>
				<path d="M21,45.1v8.1c0,0.4-0.3,0.7-0.7,0.7h-3c-0.3,0-0.7-0.3-0.7-0.7v-8.1c0-0.4,0.3-0.7,0.7-0.7h3C20.7,44.4,21,44.7,21,45.1
					z M19.5,52.6v-6.8H18v6.8H19.5z"/>
				<path d="M21,29.3v8.1c0,0.4-0.3,0.7-0.7,0.7h-3c-0.3,0-0.7-0.3-0.7-0.7v-8.1c0-0.4,0.3-0.7,0.7-0.7h3C20.7,28.6,21,28.9,21,29.3
					z M19.5,36.7v-6.8H18v6.8H19.5z"/>
				<path d="M21,13.4v8.1c0,0.4-0.3,0.7-0.7,0.7h-3c-0.3,0-0.7-0.3-0.7-0.7v-8.1c0-0.4,0.3-0.7,0.7-0.7h3C20.7,12.7,21,13,21,13.4z
					 M19.5,20.9v-6.8H18v6.8H19.5z"/>
			</g>
		</g>
		<g>
			<path class="st1" d="M93.1,68.5c0,6.8-5.4,12.3-12.1,12.3c-6.7,0-12.1-5.5-12.1-12.3c0-6,9.3-26.2,12.1-32.2
				C83.7,42.3,93.1,62.5,93.1,68.5z"/>
			<g>
				<path d="M95.7,82c0.4,0.1,0.7,0.7,0.6,1.1c-0.9,2.6-3.3,4.4-6.1,4.4c-2.1,0-4-1-5.2-2.7c-1.1,1.7-3.1,2.7-5.2,2.7
					c-2.1,0-4-1-5.2-2.7c-1.2,1.7-3.1,2.7-5.2,2.7c-2.7,0-5.2-1.8-6.1-4.4c-0.1-0.5,0.1-1,0.6-1.1c0.4-0.2,1,0.1,1.1,0.6
					c0.7,1.9,2.4,3.2,4.4,3.2s3.7-1.3,4.4-3.2c0.1-0.4,0.4-0.6,0.9-0.6s0.7,0.3,0.9,0.6c0.7,1.9,2.4,3.2,4.4,3.2s3.7-1.3,4.4-3.2
					c0.1-0.4,0.4-0.6,0.9-0.6c0.4,0,0.7,0.3,0.9,0.6c0.7,1.9,2.4,3.2,4.4,3.2c2,0,3.7-1.3,4.4-3.2C94.7,82,95.3,81.8,95.7,82
					L95.7,82z"/>
				<path d="M95.5,86.6c0.4,0.2,0.7,0.7,0.6,1.1c-0.9,2.6-3.3,4.4-6.1,4.4c-2.1,0-4-1-5.2-2.7c-1.1,1.7-3.1,2.7-5.2,2.7
					c-2.1,0-4-1-5.2-2.7c-1.1,1.7-3.1,2.7-5.2,2.7c-2.7,0-5.2-1.8-6.1-4.4c-0.1-0.5,0.1-1,0.6-1.1s1,0.1,1.1,0.6
					c0.7,1.9,2.4,3.2,4.4,3.2c2,0,3.7-1.3,4.4-3.2c0.1-0.4,0.4-0.6,0.9-0.6s0.7,0.3,0.9,0.6c0.7,1.9,2.4,3.2,4.4,3.2
					s3.7-1.3,4.4-3.2c0.1-0.4,0.4-0.6,0.9-0.6c0.4,0,0.7,0.3,0.9,0.6c0.7,1.9,2.4,3.2,4.4,3.2c2,0,3.7-1.3,4.4-3.2
					C94.6,86.7,95.1,86.4,95.5,86.6L95.5,86.6z"/>
				<path d="M93.7,67.5c0,7.8-6.3,14.1-13.9,14.1s-13.9-6.3-13.9-14.1S78.5,33.9,79,32.8c0.1-0.3,0.4-0.5,0.8-0.5
					c0.3,0,0.7,0.2,0.8,0.5C81.2,33.9,93.7,60.1,93.7,67.5z M79.8,79.8c6.7,0,12.1-5.5,12.1-12.3c0-6-9.3-26.2-12.1-32.2
					c-2.8,6-12.1,26.3-12.1,32.2C67.7,74.3,73.1,79.8,79.8,79.8z"/>
				<path d="M89.5,62.3c0.7,2.1,0.9,3.6,0.9,4.6c0,3.6-1.8,7-4.7,9C85.5,76,85.4,76,85.2,76c-0.3,0-0.6-0.1-0.8-0.4
					c-0.2-0.4-0.1-1,0.2-1.3c2.5-1.7,3.9-4.5,3.9-7.5c0-0.6-0.1-1.8-0.9-4.1c-0.1-0.5,0.1-1,0.6-1.1C88.9,61.5,89.3,61.8,89.5,62.3
					L89.5,62.3z"/>
			</g>
		</g>
	</g>
</g>
</svg>
