<?xml version="1.0" encoding="UTF-8"?><svg id="uuid-69388622-bce6-45f7-beae-c0175aaf706f" xmlns="http://www.w3.org/2000/svg" width="30.67" height="46.76" viewBox="0 0 30.67 46.76"><defs><style>.uuid-60a96e09-01c0-4159-b3d8-fbc6c5259ce5{fill:#fff;}.uuid-d80afea9-5f1f-496d-8209-29b5019ae177{fill:#3e7b7a;}.uuid-74ba77b6-a0e7-4264-b48d-89a134b2163b{fill:#f0d628;}</style></defs><g id="uuid-20a49ddc-3aec-4432-8011-1d1938121a35"><g><path class="uuid-60a96e09-01c0-4159-b3d8-fbc6c5259ce5" d="m30.64,15.32c0,6.27-3.76,11.65-9.15,14.03-.14.06-.29.14-.42.22-.36.22-.67.52-.91.85-.31.43-.52.95-.59,1.5l-.23,1.8c-.73.24-1.48.41-2.23.51-.34.05-.69.08-1.03.1-.25.02-.5.02-.75.02h-.02c-.24,0-.49,0-.73-.02-.19,0-.37-.01-.56-.04-.31-.04-.6-.07-.89-.13h0c-.61-.1-1.22-.25-1.82-.44l-.24-1.8s0-.05,0-.06c-.08-.53-.28-1.02-.58-1.43-.1-.13-.21-.26-.32-.38,0,0,0,0,0,0,0,0,0,0,0,0,0,0,0,0,0-.01-.18-.18-.37-.33-.58-.46-.13-.08-.27-.15-.41-.22-.1-.04-.19-.09-.29-.13-.09-.04-.19-.09-.28-.14-.75-.37-1.46-.79-2.13-1.27-.82-.58-1.58-1.24-2.27-1.97h0C1.64,23.15.06,19.54,0,15.55c-.02-1.44.16-2.84.52-4.17.61-2.27,1.73-4.35,3.24-6.08.33-.38.68-.74,1.04-1.09.52-.49,1.07-.94,1.65-1.36,0,0,0,0,0,0,.83-.59,1.73-1.11,2.67-1.53.47-.21.95-.4,1.45-.56.18-.06.35-.11.53-.16h0c.76-.22,1.55-.38,2.35-.48.11-.01.22-.03.33-.04h0c.37-.04.75-.06,1.14-.07.03,0,.06,0,.1,0,.1,0,.2,0,.29,0,.05,0,.09,0,.14,0,.47,0,.94.03,1.4.08.11.01.23.02.34.04.79.1,1.57.25,2.32.47h0c2.39.68,4.54,1.92,6.31,3.58,2.05,1.92,3.56,4.4,4.31,7.2h0c.34,1.27.52,2.6.52,3.97Z"/><path class="uuid-74ba77b6-a0e7-4264-b48d-89a134b2163b" d="m14.57,34.33c-.09,0-.19,0-.28,0-.09,0-.19-.02-.28-.03-.31-.04-.6-.07-.89-.13h0c-.61-.1-1.22-.25-1.82-.44l-.24-1.8s0-.05,0-.06c-.08-.53-.28-1.02-.58-1.43-.1-.13-.21-.26-.32-.38,0,0,0,0,0,0,0,0,0,0,0,0,0,0,0,0,0-.01-.18-.18-.37-.33-.58-.46-.13-.08-.27-.15-.41-.22-.04-.02-.08-.04-.12-.05-.07-.07-.13-.13-.19-.2C6.22,21.62,3.1,8.37,10.55.78c.01,0,.01-.01.01-.01.18-.06.35-.11.53-.16h0c.76-.22,1.55-.38,2.35-.48.11-.01.22-.03.33-.04h0s0,0,0,0c-.12.22-6.15,11.38.79,34.25Z"/><path class="uuid-74ba77b6-a0e7-4264-b48d-89a134b2163b" d="m6.45,27.82s0,0,0,0C2.6,25.08.08,20.61,0,15.55c-.02-1.44.16-2.84.52-4.17.74-2.77,2.25-5.24,4.28-7.17.51-.49,1.07-.94,1.64-1.36,0,0,0,0,0,0-.33.38-8.32,9.85.02,24.95Z"/><path class="uuid-74ba77b6-a0e7-4264-b48d-89a134b2163b" d="m16.07,34.33h0c.19,0,.37-.01.56-.04.31-.04.6-.07.89-.13h0c.61-.1,1.22-.25,1.82-.44l.24-1.8s0-.05,0-.07c.08-.53.28-1.02.58-1.43.1-.13.2-.26.32-.38,0,0,0,0,0,0,0,0,0,0,0,0,0,0,0,0,.01-.01.18-.18.37-.33.58-.46.17-.11.34-.19.53-.27.07-.07.13-.13.19-.2,2.61-7.48,5.74-20.75-1.74-28.34-.18-.06-.36-.11-.53-.16h0c-.76-.22-1.54-.38-2.35-.48-.11-.01-.22-.03-.33-.04h0s6.23,11.15-.78,34.25Z"/><path class="uuid-74ba77b6-a0e7-4264-b48d-89a134b2163b" d="m24.22,27.81c3.85-2.74,6.37-7.2,6.45-12.27.02-1.44-.16-2.84-.52-4.17-.74-2.77-2.25-5.24-4.28-7.17-.52-.49-1.07-.94-1.65-1.36.17.2,8.42,9.7,0,24.96Z"/><path class="uuid-60a96e09-01c0-4159-b3d8-fbc6c5259ce5" d="m19.1,34.47h-7.59c-.26,0-.47-.21-.47-.47h0c0-.26.21-.47.47-.47h7.59c.26,0,.47.21.47.47h0c0,.26-.21.47-.47.47Z"/><path class="uuid-d80afea9-5f1f-496d-8209-29b5019ae177" d="m29.84,20.99c-.21-.09-5.37-2.13-14.52-2.13-9,0-14.46,2.11-14.51,2.13-.17.07-.25.26-.19.43.05.13.18.21.31.21.04,0,.08,0,.12-.02,0,0,.06-.02.15-.05l11.47,20.78h-.37c-.06,0-.11.05-.11.11v.03c0,.06.05.11.11.11h.16v1.87c0,1.27,1.03,2.3,2.3,2.3h1.14c.37,0,.72-.09,1.03-.25.75-.38,1.26-1.15,1.26-2.05v-1.87h.16c.06,0,.11-.05.11-.11v-.03c0-.06-.05-.11-.11-.11h-.41l11.47-20.79c.11.04.18.07.18.07.17.07.36-.01.43-.18.07-.17-.01-.36-.18-.43Zm-14.65,21.34h-.91l-6.24-22.32c2.01-.28,4.41-.48,7.15-.49v22.81Zm.27,0v-22.81c2.74,0,5.12.2,7.11.47l-6.24,22.34h-.87ZM1.46,21.47c.84-.28,3.03-.94,6.31-1.41l6.23,22.28h-1.03S1.46,21.47,1.46,21.47Zm16.18,20.86h-1.03s6.23-22.3,6.23-22.3c3.29.47,5.45,1.12,6.32,1.41l-11.52,20.88Z"/></g></g></svg>