<?xml version="1.0" encoding="UTF-8"?><svg id="uuid-290cadba-fa3f-4fb0-8fab-b08861944a01" xmlns="http://www.w3.org/2000/svg" width="44.62" height="68.03" viewBox="0 0 44.62 68.03"><defs><style>.uuid-0947af23-9d32-45a5-939c-94822f48c215{fill:#fff;}.uuid-cb41b6d8-ec72-4e75-94a3-dffde8c74e47{fill:#a6c933;}.uuid-fd8643e5-129b-4dca-82f9-098ce999e4f5{fill:#8ead28;}.uuid-d656c174-3c65-49b5-a2c7-7efb4cbbf5f8{fill:#3e7b7a;}</style></defs><g id="uuid-f191de84-5daa-4a81-98a1-d2d27688c14e"><g><path class="uuid-cb41b6d8-ec72-4e75-94a3-dffde8c74e47" d="m44.58,22.29c0,9.12-5.47,16.95-13.31,20.41-.21.09-.41.2-.61.32-.52.33-.97.75-1.33,1.24-.46.63-.76,1.38-.86,2.18l-.34,2.62c-1.07.34-2.15.59-3.25.74-.5.07-1,.12-1.5.15-.36.02-.73.03-1.09.03h-.03c-.35,0-.71-.01-1.06-.03-.27,0-.54-.02-.81-.05-.45-.06-.87-.11-1.3-.18h0c-.89-.15-1.78-.37-2.64-.65l-.34-2.62s0-.07-.01-.09c-.11-.76-.41-1.48-.85-2.09-.14-.19-.3-.38-.47-.55,0,0,0,0,0,0,0,0,0,0,0,0,0,0,0,0-.01-.02-.26-.26-.54-.48-.85-.67-.19-.12-.39-.22-.6-.32-.14-.06-.28-.13-.42-.19-.14-.07-.27-.13-.41-.2-1.09-.53-2.12-1.15-3.1-1.85-1.19-.85-2.3-1.81-3.3-2.87h0C2.38,33.68.09,28.42,0,22.63c-.03-2.09.23-4.13.75-6.06.89-3.31,2.52-6.33,4.71-8.85.48-.55.98-1.08,1.51-1.58.75-.71,1.55-1.37,2.4-1.98,0,0,0,0,0,0,1.21-.86,2.51-1.62,3.89-2.23.68-.31,1.39-.58,2.1-.81.26-.08.52-.16.78-.24h0c1.11-.32,2.25-.56,3.42-.7.16-.02.32-.04.48-.05h0c.54-.06,1.1-.09,1.65-.1.05,0,.09,0,.14,0,.14,0,.29,0,.43,0,.07,0,.13,0,.2,0,.68,0,1.37.04,2.04.11.17.02.33.03.49.05,1.15.14,2.28.37,3.37.68h0c3.48.98,6.61,2.79,9.18,5.2,2.98,2.8,5.18,6.41,6.27,10.47h0c.49,1.84.76,3.78.76,5.77Z"/><path class="uuid-fd8643e5-129b-4dca-82f9-098ce999e4f5" d="m21.2,49.95c-.14,0-.27,0-.41-.01-.13,0-.27-.02-.4-.04-.45-.06-.87-.11-1.3-.18h0c-.89-.15-1.78-.37-2.64-.65l-.34-2.62s0-.07-.01-.09c-.11-.76-.41-1.48-.85-2.09-.14-.19-.3-.38-.47-.55,0,0,0,0,0,0,0,0,0,0,0,0,0,0,0,0-.01-.02-.26-.26-.54-.48-.85-.67-.19-.12-.39-.22-.6-.32-.06-.03-.12-.05-.17-.07-.1-.1-.18-.18-.28-.29C9.05,31.46,4.51,12.18,15.35,1.13c.02-.01.02-.02.02-.02.26-.08.52-.16.78-.24h0c1.11-.32,2.25-.56,3.42-.7.16-.02.32-.04.48-.05h0s0,0,0,0c-.18.32-8.95,16.56,1.15,49.83Z"/><path class="uuid-fd8643e5-129b-4dca-82f9-098ce999e4f5" d="m9.39,40.47s0,0,0,0C3.79,36.49.11,29.99,0,22.63c-.03-2.09.23-4.13.75-6.06,1.08-4.03,3.27-7.63,6.22-10.43.75-.71,1.55-1.37,2.39-1.98,0,0,0,0,0,0-.48.56-12.11,14.34.02,36.3Z"/><path class="uuid-fd8643e5-129b-4dca-82f9-098ce999e4f5" d="m23.39,49.95h0c.27,0,.54-.02.81-.05.45-.06.87-.11,1.29-.18h0c.89-.15,1.78-.37,2.64-.65l.34-2.62s0-.07.01-.09c.11-.76.41-1.48.85-2.09.14-.2.3-.38.47-.55,0,0,0,0,0,0,0,0,0,0,0,0,0,0,0,0,.02-.02.26-.26.54-.48.85-.67.24-.15.5-.28.77-.39.1-.1.18-.19.28-.29,3.8-10.89,8.34-30.19-2.53-41.23-.26-.09-.52-.16-.78-.24h0c-1.11-.32-2.25-.56-3.42-.7-.16-.02-.32-.04-.48-.05h0s9.06,16.23-1.13,49.83Z"/><path class="uuid-fd8643e5-129b-4dca-82f9-098ce999e4f5" d="m35.24,40.47c5.6-3.98,9.27-10.48,9.38-17.85.03-2.09-.23-4.13-.75-6.06-1.08-4.03-3.27-7.63-6.23-10.43-.75-.71-1.55-1.37-2.4-1.98.25.29,12.25,14.12,0,36.31Z"/><path class="uuid-0947af23-9d32-45a5-939c-94822f48c215" d="m27.79,50.15h-11.05c-.37,0-.68-.3-.68-.68h0c0-.37.3-.68.68-.68h11.05c.37,0,.68.3.68.68h0c0,.37-.3.68-.68.68Z"/><path class="uuid-d656c174-3c65-49b5-a2c7-7efb4cbbf5f8" d="m43.41,30.54c-.31-.13-7.81-3.1-21.12-3.1-13.1,0-21.04,3.07-21.12,3.1-.25.1-.37.38-.27.63.08.19.26.31.45.31.06,0,.12-.01.18-.03,0,0,.09-.03.22-.08l16.68,30.23h-.53c-.09,0-.17.07-.17.17v.04c0,.09.07.17.17.17h.23v2.72c0,1.85,1.5,3.34,3.34,3.34h1.65c.54,0,1.05-.13,1.5-.36,1.09-.55,1.84-1.68,1.84-2.99v-2.72h.23c.09,0,.17-.07.17-.17v-.04c0-.09-.07-.17-.17-.17h-.59s16.69-30.25,16.69-30.25c.15.06.26.09.26.1.25.1.53-.02.63-.27.1-.25-.02-.53-.27-.63Zm-21.31,31.05h-1.33S11.69,29.12,11.69,29.12c2.92-.4,6.42-.7,10.41-.71v33.18Zm.39,0V28.41c3.98,0,7.45.29,10.35.69l-9.08,32.5h-1.27ZM2.12,31.24c1.23-.41,4.41-1.37,9.19-2.06l9.07,32.42h-1.5S2.12,31.24,2.12,31.24Zm23.54,30.36h-1.5s9.07-32.44,9.07-32.44c4.79.68,7.93,1.63,9.19,2.06l-16.76,30.38Z"/></g></g></svg>