<?xml version="1.0" encoding="UTF-8"?><svg xmlns="http://www.w3.org/2000/svg" width="353.76" height="237.71" xmlns:xlink="http://www.w3.org/1999/xlink" viewBox="0 0 353.76 237.71"><defs><style>.uuid-f1597170-fae8-45ac-9548-1f591d73370c{fill:#ddd;}.uuid-b82ce6ce-3cd0-4416-b64a-3b4a725d9dd0,.uuid-13f8fc6e-a45d-46c9-b40a-d2d1cc2f5e5d{fill:#c9f3f3;}.uuid-d4351841-e228-47ed-8e94-264c3fdd6b4c,.uuid-1c0ec38a-b997-47ad-a16a-1c6982ead208{fill:#fff;}.uuid-68820a78-50b9-4f49-a772-5f597ca73d33{fill:#bf692e;}.uuid-f95b36de-9766-472a-9bba-08244ee75778{fill:#604222;}.uuid-1ebb1f8f-0f43-4f64-a4e8-fc268225e39b{clip-path:url(#uuid-d26e27ea-7735-4539-8841-de8bfd0b1178);}.uuid-0e845000-bcb8-43da-b689-1d52734878bd{isolation:isolate;}.uuid-052836c5-ffd5-4178-b5bc-4bee9d80a193{fill:#9e5726;}.uuid-e31d6a6a-004b-4ee8-a08d-e71e8f22487e{fill:#b0ce34;}.uuid-01cdd78f-1469-4055-a8e1-d9496252ce97{fill:#81a317;}.uuid-3d81f160-4d1e-46c3-a772-346386a7e673{fill:#8ead28;}.uuid-1c0ec38a-b997-47ad-a16a-1c6982ead208{opacity:.2;}.uuid-3665716f-2529-47d0-b774-94c8f69cd614{fill:none;}.uuid-d08bfc65-0eba-452b-b791-1e91f600fc02{fill:#427880;}.uuid-d6e9a053-602c-4856-ac1d-fd12b5ec188c{fill:#bcbcbc;}.uuid-29a6d4ba-7484-42df-98b1-63e61a7ec6b5{fill:#70532f;}.uuid-97f6991c-5c13-4f8a-9d50-93a7469e9965{fill:#799b34;}.uuid-c0a7d13f-e3b1-4a86-b2f1-6dc98c8ca372{fill:#3e7b7a;}.uuid-13f8fc6e-a45d-46c9-b40a-d2d1cc2f5e5d{mix-blend-mode:soft-light;}.uuid-691ca10e-0008-43b8-9443-d61254c029b7{opacity:.67;}.uuid-2c48f422-47d5-468a-9c6a-8ad05f29f5be{fill:#cecece;}.uuid-715d72a8-4aed-40ba-b292-83425d47a398{fill:#309aee;}.uuid-176b4b64-c807-45aa-8b93-393703d18150{fill:#569692;}.uuid-de3171b5-bf8b-4942-8010-95a3441fe138{fill:#587324;}.uuid-89490e50-1cce-464c-8159-20606540e17e{fill:#ededed;}</style><clipPath id="uuid-d26e27ea-7735-4539-8841-de8bfd0b1178"><path class="uuid-3665716f-2529-47d0-b774-94c8f69cd614" d="m.01,222.61c-.01.15-.01.3-.01.45,0,5.7,4.62,10.33,10.33,10.33h308.57c2.85,0,5.44-1.16,7.31-3.03,1.87-1.87,3.03-4.45,3.03-7.3,0-.16,0-.3-.01-.45H.01Z"/></clipPath></defs><g class="uuid-0e845000-bcb8-43da-b689-1d52734878bd"><g id="uuid-f5a6d110-9c20-4562-b483-d0cc19747acd"><g id="uuid-09c2a2a7-7bcf-4afa-87de-3ce86782791b"><g><g><path class="uuid-3d81f160-4d1e-46c3-a772-346386a7e673" d="m32.92,133.9h0c-8.64,0-15.64,6.66-15.64,14.89v26.13c0,8.22,7,14.89,15.64,14.89h0c8.64,0,15.64-6.66,15.64-14.89v-26.13c0-8.22-7-14.89-15.64-14.89Z"/><path class="uuid-68820a78-50b9-4f49-a772-5f597ca73d33" d="m43.56,170.53c0-.86-.7-1.56-1.56-1.56s-1.56.7-1.56,1.56c0,5.97-2.72,9.21-5.73,10.13v-16.5c0-.99-.81-1.8-1.8-1.8h0c-.99,0-1.8.81-1.8,1.8v16.5c-3.01-.91-5.73-4.16-5.73-10.13,0-.86-.7-1.56-1.56-1.56s-1.56.7-1.56,1.56c0,4.07,1.11,7.52,3.21,9.98,1.53,1.79,3.49,2.94,5.63,3.35v30.03h3.6v-30.04c4.64-.93,8.85-5.47,8.85-13.33Z"/></g><g><path class="uuid-1c0ec38a-b997-47ad-a16a-1c6982ead208" d="m156.49,49c.99,0,1.93.28,2.79.78,3.35-6.42,7.63-10.3,12.32-10.3,4.23,0,8.13,3.15,11.31,8.47,2.08-1.17,4.38-1.84,6.81-1.84,4.1,0,7.85,1.88,10.76,4.96,1.24-1.29,2.75-2.07,4.39-2.07,2.03,0,3.87,1.17,5.22,3.06h-58.82c1.35-1.89,3.19-3.06,5.22-3.06Z"/><path class="uuid-1c0ec38a-b997-47ad-a16a-1c6982ead208" d="m282.97,141.64c.86,0,1.68.24,2.44.68,2.92-5.61,6.67-9,10.77-9,3.69,0,7.1,2.75,9.88,7.4,1.82-1.02,3.83-1.61,5.95-1.61,3.59,0,6.86,1.64,9.41,4.33,1.08-1.13,2.4-1.81,3.84-1.81,1.77,0,3.38,1.02,4.56,2.67h-51.4c1.18-1.65,2.79-2.67,4.56-2.67Z"/><path class="uuid-1c0ec38a-b997-47ad-a16a-1c6982ead208" d="m246.93,30.36c-.86,0-1.68.24-2.44.68-2.92-5.61-6.67-9-10.77-9-3.69,0-7.1,2.75-9.88,7.4-1.82-1.02-3.83-1.61-5.95-1.61-3.59,0-6.86,1.64-9.41,4.33-1.08-1.13-2.4-1.81-3.84-1.81-1.77,0-3.38,1.02-4.56,2.67h51.4c-1.18-1.65-2.79-2.67-4.56-2.67Z"/><path class="uuid-1c0ec38a-b997-47ad-a16a-1c6982ead208" d="m18.22,110.08c1.29,0,2.51.37,3.64,1.02,4.37-8.38,9.97-13.45,16.09-13.45,5.51,0,10.61,4.11,14.76,11.05,2.72-1.53,5.73-2.39,8.9-2.39,5.36,0,10.26,2.44,14.07,6.47,1.61-1.68,3.58-2.69,5.73-2.69,2.65,0,5.05,1.53,6.82,4H11.4c1.77-2.47,4.17-4,6.82-4Z"/><path class="uuid-1c0ec38a-b997-47ad-a16a-1c6982ead208" d="m100.54,79.26c0-1.21.98-2.18,2.18-2.18s2.18.98,2.18,2.18-.98,2.18-2.18,2.18-2.18-.98-2.18-2.18Z"/><circle class="uuid-1c0ec38a-b997-47ad-a16a-1c6982ead208" cx="62.32" cy="34.88" r="2.67"/></g><g><path class="uuid-1c0ec38a-b997-47ad-a16a-1c6982ead208" d="m329.02,19.09c-1.17,0-2.29.33-3.32.93-3.98-7.64-9.09-12.27-14.67-12.27-5.03,0-9.68,3.75-13.46,10.09-2.48-1.4-5.22-2.19-8.11-2.19-4.89,0-9.34,2.23-12.82,5.9-1.47-1.54-3.27-2.46-5.23-2.46-2.42,0-4.61,1.39-6.22,3.64h70.04c-1.61-2.25-3.8-3.64-6.22-3.64Z"/><path class="uuid-1c0ec38a-b997-47ad-a16a-1c6982ead208" d="m290.97,102.87c-1.53,0-2.99.44-4.33,1.21-5.2-9.98-11.87-16.02-19.16-16.02-6.57,0-12.63,4.89-17.57,13.16-3.24-1.82-6.82-2.85-10.6-2.85-6.38,0-12.21,2.91-16.75,7.7-1.92-2.01-4.27-3.21-6.82-3.21-3.16,0-6.02,1.82-8.12,4.76h91.48c-2.1-2.94-4.96-4.76-8.12-4.76Z"/><circle class="uuid-1c0ec38a-b997-47ad-a16a-1c6982ead208" cx="327.25" cy="60.71" r="8.58" transform="translate(-5.38 49.17) rotate(-8.52)"/><path class="uuid-1c0ec38a-b997-47ad-a16a-1c6982ead208" d="m242.08,55.31c0-1.76-1.42-3.18-3.18-3.18s-3.18,1.42-3.18,3.18,1.42,3.18,3.18,3.18,3.18-1.42,3.18-3.18Z"/></g><path class="uuid-97f6991c-5c13-4f8a-9d50-93a7469e9965" d="m275.65,214.02h-100.36l45.25-66.34c1.19-1.74,3.05-2.61,4.93-2.61s3.76.88,4.94,2.61l45.24,66.34Z"/><path class="uuid-de3171b5-bf8b-4942-8010-95a3441fe138" d="m204.67,214.02H44.86l71.82-108.62c1.92-2.9,5-4.34,8.08-4.34s6.16,1.44,8.08,4.34l71.75,108.5.08.13Z"/><g><path class="uuid-e31d6a6a-004b-4ee8-a08d-e71e8f22487e" d="m319.09,177.85s0,0,0,0c0,0,0-.01,0-.02,0-.65-.04-1.3-.1-1.94-.02-.24-.06-.48-.09-.72-.05-.39-.1-.77-.18-1.15-.06-.3-.12-.6-.19-.9-.07-.29-.14-.58-.22-.86-.1-.35-.2-.7-.31-1.04-.06-.17-.12-.33-.18-.5-.72-1.98-1.72-3.82-2.97-5.47,2.45-.58,3.56-2.68,3.56-2.68-1.94-.86-3.55-.63-4.79-.07,1.52-2.32.62-4.79.62-4.79-1.98.88-2.89,2.27-3.29,3.59-1.7-1.31-3.6-2.36-5.65-3.11-.13-.05-.25-.1-.38-.14-.4-.13-.8-.25-1.2-.37-.22-.06-.44-.12-.66-.17-.37-.09-.73-.17-1.11-.24-.28-.05-.56-.09-.85-.13-.34-.05-.68-.1-1.03-.13-.37-.03-.74-.04-1.11-.06-.26,0-.52-.04-.78-.04-11.55,0-20.92,9.37-20.92,20.92s9.37,20.92,20.92,20.92c0,0,0,0,0,0h0c.07,0,.13,0,.2-.01.65,0,1.3-.03,1.93-.1.26-.03.52-.08.78-.12,8.49-1.19,15.34-7.47,17.36-15.66.4-1.61.63-3.29.63-5.03,0,0,0,0,0,0Z"/><path class="uuid-052836c5-ffd5-4178-b5bc-4bee9d80a193" d="m290.56,189.25c.45-.51,1.24-.57,1.75-.11l4.62,4.04v-5.61c0-.68.56-1.24,1.24-1.24s1.24.56,1.24,1.24v1.87l1.58-1.39c.51-.45,1.29-.4,1.75.12.2.24.3.52.3.81,0,.35-.14.7-.42.95l-3.21,2.81v19.93h-2.49v-16.16l-6.26-5.5c-.27-.25-.42-.58-.42-.93,0-.29.11-.59.31-.82Z"/></g><g><path class="uuid-e31d6a6a-004b-4ee8-a08d-e71e8f22487e" d="m230.04,212.53h-93.08l19.5-33.79,10.53-18.25,3.18-5.51c5.92-10.25,20.72-10.25,26.64,0l3.18,5.51,30.04,52.04Z"/><path class="uuid-e31d6a6a-004b-4ee8-a08d-e71e8f22487e" d="m183.51,147.29v65.24h-46.55l33.23-57.55c2.96-5.13,8.15-7.69,13.32-7.69Z"/><path class="uuid-d4351841-e228-47ed-8e94-264c3fdd6b4c" d="m200,160.49c-1.69,1.18-3.76,1.87-5.98,1.87-1.91,0-3.71-.52-5.25-1.42-1.55.9-3.34,1.42-5.25,1.42s-3.71-.52-5.25-1.42c-1.55.9-3.34,1.42-5.26,1.42-2.22,0-4.29-.69-5.98-1.87l3.18-5.51c5.92-10.25,20.71-10.25,26.63,0l3.18,5.51Z"/><path class="uuid-d4351841-e228-47ed-8e94-264c3fdd6b4c" d="m183.51,147.29v15.07c-1.91,0-3.71-.52-5.25-1.42-1.55.9-3.34,1.42-5.26,1.42-2.22,0-4.29-.69-5.98-1.87l3.18-5.51c2.96-5.13,8.15-7.69,13.32-7.69Z"/></g><g><rect class="uuid-d4351841-e228-47ed-8e94-264c3fdd6b4c" x="135.11" y="127.87" width="2.05" height="5.79"/><rect class="uuid-2c48f422-47d5-468a-9c6a-8ad05f29f5be" x="136.13" y="127.87" width="1.03" height="5.79"/><g><rect class="uuid-d4351841-e228-47ed-8e94-264c3fdd6b4c" x="134.81" y="116.64" width="2.65" height="6.9"/><rect class="uuid-2c48f422-47d5-468a-9c6a-8ad05f29f5be" x="136.13" y="116.64" width="1.33" height="6.9"/><path class="uuid-89490e50-1cce-464c-8159-20606540e17e" d="m138.03,88.35c-.05-1.07-.92-1.9-1.95-1.9-1.03,0-1.9.84-1.94,1.9l-1.19,27.17c-.08,1.94,1.06,3.58,2.53,3.58h1.33c1.47,0,2.61-1.65,2.52-3.58l-1.29-27.17Z"/><path class="uuid-d4351841-e228-47ed-8e94-264c3fdd6b4c" d="m136.13,86.45v32.65h-.66c-1.47,0-2.61-1.64-2.52-3.58l1.19-27.17c.04-1.08.91-1.91,1.94-1.91h.05Z"/></g><g><rect class="uuid-d4351841-e228-47ed-8e94-264c3fdd6b4c" x="139.83" y="124.38" width="2.65" height="6.9" transform="translate(312.58 44.89) rotate(112.02)"/><rect class="uuid-2c48f422-47d5-468a-9c6a-8ad05f29f5be" x="140.24" y="125" width="1.33" height="6.9" transform="translate(312.82 45.98) rotate(112.02)"/><path class="uuid-89490e50-1cce-464c-8159-20606540e17e" d="m169.87,141.49c1.01.35,2.1-.14,2.49-1.1.39-.96-.06-2.07-1.04-2.51l-24.75-11.29c-1.76-.8-3.71-.36-4.26,1l-.5,1.23c-.55,1.37.55,3.03,2.38,3.67l25.68,8.99Z"/><path class="uuid-d4351841-e228-47ed-8e94-264c3fdd6b4c" d="m172.35,140.45l-30.27-12.24.25-.61c.55-1.36,2.5-1.81,4.26-1l24.74,11.28c.98.44,1.43,1.56,1.04,2.52l-.02.05Z"/></g><g><rect class="uuid-d4351841-e228-47ed-8e94-264c3fdd6b4c" x="129.78" y="124.38" width="2.65" height="6.9" transform="translate(200.48 -41.63) rotate(67.98)"/><rect class="uuid-2c48f422-47d5-468a-9c6a-8ad05f29f5be" x="130.69" y="125" width="1.33" height="6.9" transform="translate(201.18 -41.49) rotate(67.98)"/><path class="uuid-89490e50-1cce-464c-8159-20606540e17e" d="m102.39,141.49c-1.01.35-2.1-.14-2.49-1.1-.39-.96.06-2.07,1.04-2.51l24.75-11.29c1.76-.8,3.71-.36,4.26,1l.5,1.23c.55,1.37-.55,3.03-2.38,3.67l-25.68,8.99Z"/><path class="uuid-d4351841-e228-47ed-8e94-264c3fdd6b4c" d="m99.92,140.45l30.27-12.24-.25-.61c-.55-1.36-2.5-1.81-4.26-1l-24.74,11.28c-.98.44-1.43,1.56-1.04,2.52l.02.05Z"/></g><path class="uuid-d4351841-e228-47ed-8e94-264c3fdd6b4c" d="m140.17,213.91h-8.08l1.98-80.12c.02-1.12.94-2.02,2.06-2.02s2.04.9,2.06,2.02l1.98,80.12Z"/><path class="uuid-89490e50-1cce-464c-8159-20606540e17e" d="m140.17,213.91h-4.04v-82.14c1.12,0,2.04.9,2.06,2.02l1.98,80.12Z"/><path class="uuid-c0a7d13f-e3b1-4a86-b2f1-6dc98c8ca372" d="m139.74,125.43c0,1.99-1.61,3.6-3.6,3.6s-3.6-1.61-3.6-3.6,1.61-3.6,3.6-3.6,3.6,1.61,3.6,3.6Z"/><path class="uuid-176b4b64-c807-45aa-8b93-393703d18150" d="m138.28,125.43c0,1.19-.96,2.15-2.15,2.15s-2.15-.96-2.15-2.15.96-2.15,2.15-2.15,2.15.96,2.15,2.15Z"/></g><g><g><rect class="uuid-d4351841-e228-47ed-8e94-264c3fdd6b4c" x="65.95" y="204.73" width="3.68" height="7.18"/><rect class="uuid-f1597170-fae8-45ac-9548-1f591d73370c" x="67.79" y="204.73" width="1.84" height="7.18"/><rect class="uuid-b82ce6ce-3cd0-4416-b64a-3b4a725d9dd0" x="49.72" y="183.5" width="36.29" height="24.68"/><rect class="uuid-715d72a8-4aed-40ba-b292-83425d47a398" x="51.02" y="184.71" width="10.33" height="10.33"/><rect class="uuid-715d72a8-4aed-40ba-b292-83425d47a398" x="62.62" y="184.71" width="10.33" height="10.33"/><rect class="uuid-715d72a8-4aed-40ba-b292-83425d47a398" x="74.23" y="184.71" width="10.33" height="10.33"/><rect class="uuid-715d72a8-4aed-40ba-b292-83425d47a398" x="51.02" y="196.45" width="10.33" height="10.33"/><rect class="uuid-715d72a8-4aed-40ba-b292-83425d47a398" x="62.62" y="196.45" width="10.33" height="10.33"/><rect class="uuid-715d72a8-4aed-40ba-b292-83425d47a398" x="74.23" y="196.45" width="10.33" height="10.33"/><polygon class="uuid-13f8fc6e-a45d-46c9-b40a-d2d1cc2f5e5d" points="69.92 208.19 49.72 208.19 49.72 183.5 65.31 183.5 69.92 208.19"/><rect class="uuid-f1597170-fae8-45ac-9548-1f591d73370c" x="65.2" y="211.91" width="5.19" height=".61"/><rect class="uuid-d6e9a053-602c-4856-ac1d-fd12b5ec188c" x="67.79" y="211.91" width="2.59" height=".61"/></g><g><rect class="uuid-d4351841-e228-47ed-8e94-264c3fdd6b4c" x="110.14" y="204.73" width="3.68" height="7.18"/><rect class="uuid-f1597170-fae8-45ac-9548-1f591d73370c" x="111.98" y="204.73" width="1.84" height="7.18"/><rect class="uuid-b82ce6ce-3cd0-4416-b64a-3b4a725d9dd0" x="93.9" y="183.5" width="36.29" height="24.68"/><rect class="uuid-715d72a8-4aed-40ba-b292-83425d47a398" x="95.2" y="184.71" width="10.33" height="10.33"/><rect class="uuid-715d72a8-4aed-40ba-b292-83425d47a398" x="106.81" y="184.71" width="10.33" height="10.33"/><rect class="uuid-715d72a8-4aed-40ba-b292-83425d47a398" x="118.41" y="184.71" width="10.33" height="10.33"/><rect class="uuid-715d72a8-4aed-40ba-b292-83425d47a398" x="95.2" y="196.45" width="10.33" height="10.33"/><rect class="uuid-d08bfc65-0eba-452b-b791-1e91f600fc02" x="106.81" y="196.45" width="10.33" height="10.33"/><rect class="uuid-715d72a8-4aed-40ba-b292-83425d47a398" x="118.41" y="196.45" width="10.33" height="10.33"/><polygon class="uuid-13f8fc6e-a45d-46c9-b40a-d2d1cc2f5e5d" points="114.11 208.19 93.9 208.19 93.9 183.5 109.49 183.5 114.11 208.19"/><rect class="uuid-f1597170-fae8-45ac-9548-1f591d73370c" x="109.38" y="211.91" width="5.19" height=".61"/><rect class="uuid-d6e9a053-602c-4856-ac1d-fd12b5ec188c" x="111.98" y="211.91" width="2.59" height=".61"/></g></g><g><g><path class="uuid-de3171b5-bf8b-4942-8010-95a3441fe138" d="m298.06,210.79c0,.6-.09,1.19-.23,1.75h-35.92c-.15-.56-.23-1.14-.23-1.75,0-1.28.34-2.48.94-3.52,1.22-2.11,3.49-3.53,6.1-3.53,1.08,0,2.1.25,3.01.68,1.02-4.01,4.64-6.98,8.97-6.98,2.55,0,4.85,1.03,6.52,2.69,1.05,1.04,1.85,2.32,2.31,3.77.48-.1.98-.16,1.48-.16,3.89,0,7.04,3.15,7.04,7.04Z"/><path class="uuid-e31d6a6a-004b-4ee8-a08d-e71e8f22487e" d="m274.31,211.32c0,.42-.06.83-.16,1.22h-24.99c-.1-.39-.16-.8-.16-1.22,0-.89.24-1.73.66-2.45.85-1.47,2.43-2.45,4.24-2.45.75,0,1.46.17,2.1.47.71-2.79,3.23-4.86,6.24-4.86,1.77,0,3.38.71,4.54,1.87.73.72,1.29,1.62,1.61,2.62.33-.07.68-.11,1.03-.11,2.71,0,4.9,2.19,4.9,4.9Z"/></g><g><path class="uuid-01cdd78f-1469-4055-a8e1-d9496252ce97" d="m227.05,210.95c0,.42-.05.84-.13,1.24h-45.18c-.81-1.4-1.27-3.04-1.27-4.78,0-5.3,4.3-9.6,9.6-9.6,2.32,0,4.44.82,6.1,2.18,2.08-3.78,6.1-6.34,10.72-6.34,6.63,0,12.02,5.29,12.21,11.87.66-.25,1.37-.4,2.12-.4,3.22,0,5.82,2.61,5.82,5.83Z"/><path class="uuid-e31d6a6a-004b-4ee8-a08d-e71e8f22487e" d="m235.05,205.12c-.75,0-1.46.15-2.12.4-.19-6.58-5.58-11.87-12.21-11.87-4.62,0-8.64,2.56-10.72,6.34-1.66-1.36-3.78-2.18-6.1-2.18-.49,0-.96.05-1.43.12.37-1.7.21-3.92-1.92-6.04,0,0-1.82,2.12-1.58,4.83-1.02-.96-2.5-1.71-4.67-1.68,0,0,.32,3.59,3.32,5.13-2.03,1.76-3.32,4.35-3.32,7.25,0,1.74.46,3.37,1.27,4.78h45.18c.09-.4.13-.81.13-1.24,0-3.22-2.61-5.83-5.82-5.83Z"/><path class="uuid-de3171b5-bf8b-4942-8010-95a3441fe138" d="m220.29,211.45c0,.25-.03.5-.08.74h-26.86c-.48-.84-.76-1.81-.76-2.84,0-3.15,2.56-5.71,5.71-5.71,1.38,0,2.64.49,3.63,1.3,1.24-2.25,3.63-3.77,6.37-3.77,3.94,0,7.14,3.14,7.26,7.06.39-.15.81-.24,1.26-.24,1.91,0,3.46,1.55,3.46,3.47Z"/><path class="uuid-de3171b5-bf8b-4942-8010-95a3441fe138" d="m184.2,205.61s.14.88.81,1.61c-.51.05-1.06.22-1.63.62,0,0,1.84,2.15,4.35.34h0s0,0,0,0c0,0-.76-2.73-3.54-2.56Z"/><path class="uuid-de3171b5-bf8b-4942-8010-95a3441fe138" d="m191.87,199.65s-.38.49-.45,1.17c-.26-.24-.61-.44-1.08-.55,0,0-.24,1.96,1.87,2.4h0s0,0,0,0c0,0,1.05-1.67-.35-3.03Z"/><path class="uuid-e31d6a6a-004b-4ee8-a08d-e71e8f22487e" d="m210.58,196.12s-.86.2-1.55.92c-.08-.51-.29-1.04-.72-1.58,0,0-2.02,1.99-.05,4.37h0s0,0,0,0c0,0,2.67-.94,2.32-3.7Z"/><path class="uuid-01cdd78f-1469-4055-a8e1-d9496252ce97" d="m218.98,201.23s-.64.61-.87,1.57c-.32-.4-.78-.75-1.42-1,0,0-.74,2.73,2.17,3.79h0s0,0,0,0c0,0,1.83-2.16.13-4.37Z"/><path class="uuid-01cdd78f-1469-4055-a8e1-d9496252ce97" d="m225.29,198.42s-.62.21-1.06.79c-.1-.36-.3-.74-.65-1.1,0,0-1.33,1.61.3,3.21h0s0,0,0,0c0,0,1.88-.89,1.41-2.9Z"/><path class="uuid-01cdd78f-1469-4055-a8e1-d9496252ce97" d="m234.82,204.2s-.65-.05-1.29.3c.06-.37.03-.8-.16-1.27,0,0-1.86.95-1,3.06h0s0,0,0,0c0,0,2.08-.07,2.45-2.09Z"/></g><g><path class="uuid-e31d6a6a-004b-4ee8-a08d-e71e8f22487e" d="m129.51,201.53c-.67,0-1.32.07-1.95.21-.6-1.89-1.65-3.58-3.03-4.94-2.19-2.18-5.21-3.53-8.55-3.53-1.9,0-3.69.45-5.3,1.23.02-1.21-.38-2.56-1.74-3.79,0,0-1.96,2.31-.85,5.18-1.16-.85-2.82-1.44-4.97-.56,0,0,.93,2.07,3.18,2.78-.41.54-.76,1.12-1.07,1.72-.24-.09-.49-.14-.76-.14-1.17,0-2.12.92-2.19,2.07-.65-.15-1.32-.23-2.01-.23-3.42,0-6.4,1.86-8,4.62-.79,1.36-1.24,2.93-1.24,4.61,0,.79.11,1.56.3,2.29h47.1c.18-.73.3-1.5.3-2.29,0-5.1-4.14-9.23-9.23-9.23Z"/><path class="uuid-de3171b5-bf8b-4942-8010-95a3441fe138" d="m145.78,211.21c0,.63-.09,1.25-.24,1.84h-37.79c-.15-.59-.24-1.2-.24-1.84,0-1.35.36-2.61.99-3.7,1.28-2.22,3.67-3.71,6.42-3.71,1.14,0,2.21.26,3.17.72,1.07-4.22,4.88-7.34,9.43-7.34,2.68,0,5.1,1.08,6.86,2.83,1.1,1.09,1.95,2.44,2.43,3.96.5-.11,1.03-.17,1.56-.17,4.09,0,7.41,3.32,7.41,7.41Z"/><path class="uuid-3d81f160-4d1e-46c3-a772-346386a7e673" d="m123.94,211.89c0,.4-.06.79-.15,1.16h-23.82c-.1-.37-.15-.76-.15-1.16,0-.85.23-1.65.63-2.33.81-1.4,2.31-2.34,4.04-2.34.72,0,1.39.17,2,.45.67-2.66,3.08-4.63,5.94-4.63,1.69,0,3.22.68,4.32,1.78.69.69,1.23,1.54,1.53,2.5.32-.07.65-.11.98-.11,2.58,0,4.67,2.09,4.67,4.67Z"/><path class="uuid-3d81f160-4d1e-46c3-a772-346386a7e673" d="m99.45,203.44s-1.38,1.26-1.19,3.21c-.59-.76-1.52-1.44-3.03-1.54,0,0,0,3.48,4,3.92h0s2.51-2.71.23-5.59Z"/><path class="uuid-3d81f160-4d1e-46c3-a772-346386a7e673" d="m118.86,191.42s-1.2.39-1.62,1.64c-.15-.63-.53-1.3-1.43-1.78,0,0-.96,2.13,1.36,3.51h0s0,0,0,0c0,0,2.29-.96,1.69-3.36Z"/><path class="uuid-3d81f160-4d1e-46c3-a772-346386a7e673" d="m135.62,198.29s-1.2-.38-2.27.39c.25-.6.32-1.37-.13-2.28,0,0-2.03,1.17-.93,3.64h0,0s2.42.55,3.33-1.75Z"/><path class="uuid-3d81f160-4d1e-46c3-a772-346386a7e673" d="m127.01,201.17s-.93.85-.8,2.16c-.4-.51-1.02-.97-2.04-1.03,0,0,0,2.34,2.69,2.64h0s0,0,0,0c0,0,1.69-1.82.15-3.76Z"/><path class="uuid-3d81f160-4d1e-46c3-a772-346386a7e673" d="m123.39,205.71s-1.26.06-2,1.15c.02-.65-.17-1.4-.91-2.1,0,0-1.5,1.8.38,3.74h0s0,0,0,0c0,0,2.46-.32,2.52-2.79Z"/><path class="uuid-3d81f160-4d1e-46c3-a772-346386a7e673" d="m139.47,202.93s-.72.12-1.08.79c-.03-.37-.19-.8-.66-1.15,0,0-.74,1.14.47,2.13h0s1.4-.35,1.27-1.78Z"/><path class="uuid-3d81f160-4d1e-46c3-a772-346386a7e673" d="m108.86,199.33s-.66,1.07-.17,2.3c-.52-.38-1.25-.65-2.24-.43,0,0,.65,2.25,3.31,1.79h0s0,0,0,0c0,0,1.12-2.22-.9-3.65Z"/></g></g><g class="uuid-691ca10e-0008-43b8-9443-d61254c029b7"><path class="uuid-d4351841-e228-47ed-8e94-264c3fdd6b4c" d="m84.55,113.09c-.66,0-1.27.18-1.8.5-.51-1.59-1.7-2.86-3.23-3.49.56-.88.89-1.93.89-3.06,0-3.16-2.56-5.71-5.71-5.71-2.13,0-3.99,1.17-4.97,2.9-1.03-1.74-2.93-2.9-5.1-2.9-3.2,0-5.81,2.54-5.92,5.72-.09,0-.18-.01-.27-.01-3.85,0-6.97,3.12-6.97,6.96,0,.57.07,1.13.2,1.66h36.24c-.4-1.48-1.76-2.57-3.37-2.57Z"/><path class="uuid-d4351841-e228-47ed-8e94-264c3fdd6b4c" d="m292.42,72.18h-61.14c-.22-.9-.34-1.83-.34-2.8,0-6.49,5.26-11.75,11.75-11.75,2.36,0,4.56.7,6.4,1.9,2.37-2.62,5.78-4.28,9.6-4.28,3.05,0,5.85,1.07,8.06,2.83.62-2.59,2.94-4.51,5.72-4.51,3.25,0,5.89,2.63,5.89,5.89,0,1.12-.32,2.16-.86,3.04,2.94.93,5.27,3.24,6.21,6.18.89-.53,1.92-.84,3.03-.84,2.71,0,5,1.83,5.68,4.34Z"/><path class="uuid-d4351841-e228-47ed-8e94-264c3fdd6b4c" d="m353.76,43.45h-38.79c-.14-.57-.22-1.16-.22-1.78,0-4.12,3.34-7.45,7.46-7.45,1.5,0,2.89.44,4.06,1.21,1.5-1.66,3.67-2.72,6.09-2.72,1.93,0,3.71.68,5.12,1.8.39-1.64,1.86-2.86,3.63-2.86,2.06,0,3.74,1.67,3.74,3.74,0,.71-.2,1.37-.54,1.93,1.87.59,3.34,2.06,3.94,3.92.56-.34,1.22-.53,1.92-.53,1.72,0,3.17,1.16,3.6,2.75Z"/><path class="uuid-d4351841-e228-47ed-8e94-264c3fdd6b4c" d="m175.56,81.11c-.58,0-1.12.16-1.58.44-.45-1.39-1.5-2.51-2.84-3.06.49-.78.78-1.69.78-2.68,0-2.77-2.25-5.02-5.02-5.02-1.87,0-3.5,1.03-4.36,2.55-.91-1.52-2.57-2.55-4.48-2.55-2.81,0-5.1,2.23-5.2,5.02-.08,0-.16,0-.24,0-3.38,0-6.12,2.74-6.12,6.11,0,.5.06.99.18,1.46h31.82c-.35-1.3-1.55-2.26-2.96-2.26Z"/><path class="uuid-d4351841-e228-47ed-8e94-264c3fdd6b4c" d="m212.57,10.33c-.58,0-1.12.16-1.58.44-.45-1.39-1.5-2.51-2.84-3.06.49-.78.78-1.69.78-2.68,0-2.77-2.25-5.02-5.02-5.02-1.87,0-3.5,1.03-4.36,2.55-.91-1.52-2.57-2.55-4.48-2.55-2.81,0-5.1,2.23-5.2,5.02-.08,0-.16,0-.24,0-3.38,0-6.12,2.74-6.12,6.11,0,.5.06.99.18,1.46h31.82c-.35-1.3-1.55-2.26-2.96-2.26Z"/></g><g><path class="uuid-29a6d4ba-7484-42df-98b1-63e61a7ec6b5" d="m329.24,223.06c0,2.85-1.16,5.43-3.03,7.3-1.87,1.87-4.45,3.03-7.31,3.03H10.33c-5.71,0-10.33-4.63-10.33-10.33,0-.16,0-.3.01-.45.11-2.68,1.24-5.09,3.01-6.86,1.87-1.87,4.45-3.03,7.31-3.03h308.57c5.55,0,10.09,4.38,10.33,9.89.01.15.01.3.01.45Z"/><path class="uuid-29a6d4ba-7484-42df-98b1-63e61a7ec6b5" d="m329.24,223.06c0,2.85-1.16,5.43-3.03,7.3-1.87,1.87-4.45,3.03-7.31,3.03H10.33c-5.71,0-10.33-4.63-10.33-10.33,0-.16,0-.3.01-.45.11-2.68,1.24-5.09,3.01-6.86,1.87-1.87,4.45-3.03,7.31-3.03h308.57c5.55,0,10.09,4.38,10.33,9.89.01.15.01.3.01.45Z"/><circle class="uuid-f95b36de-9766-472a-9bba-08244ee75778" cx="147.48" cy="222.53" r="5.09"/><circle class="uuid-f95b36de-9766-472a-9bba-08244ee75778" cx="52.06" cy="226.03" r="3.5"/><path class="uuid-f95b36de-9766-472a-9bba-08244ee75778" d="m109.13,220.1c0,1.93-1.57,3.5-3.5,3.5s-3.5-1.57-3.5-3.5,1.57-3.5,3.5-3.5,3.5,1.57,3.5,3.5Z"/><circle class="uuid-f95b36de-9766-472a-9bba-08244ee75778" cx="25.67" cy="218.39" r="3.5"/><path class="uuid-f95b36de-9766-472a-9bba-08244ee75778" d="m66.46,220.72c0,1-.81,1.81-1.81,1.81s-1.81-.81-1.81-1.81.81-1.81,1.81-1.81,1.81.81,1.81,1.81Z"/><path class="uuid-f95b36de-9766-472a-9bba-08244ee75778" d="m93.41,230.48c0,1.23-1,2.23-2.23,2.23s-2.23-1-2.23-2.23,1-2.23,2.23-2.23,2.23,1,2.23,2.23Z"/><path class="uuid-f95b36de-9766-472a-9bba-08244ee75778" d="m12.44,224.44c0,1.23-1,2.23-2.23,2.23s-2.23-1-2.23-2.23,1-2.23,2.23-2.23,2.23,1,2.23,2.23Z"/><path class="uuid-f95b36de-9766-472a-9bba-08244ee75778" d="m79.42,220.3c0,1.23-1,2.23-2.23,2.23s-2.23-1-2.23-2.23,1-2.23,2.23-2.23,2.23,1,2.23,2.23Z"/><path class="uuid-f95b36de-9766-472a-9bba-08244ee75778" d="m280.42,224.44c0,2.81-2.28,5.09-5.09,5.09s-5.09-2.28-5.09-5.09,2.28-5.09,5.09-5.09,5.09,2.28,5.09,5.09Z"/><circle class="uuid-f95b36de-9766-472a-9bba-08244ee75778" cx="299.5" cy="222.53" r="5.09"/><path class="uuid-f95b36de-9766-472a-9bba-08244ee75778" d="m207.59,226.03c0,1.93-1.57,3.5-3.5,3.5s-3.5-1.57-3.5-3.5,1.57-3.5,3.5-3.5,3.5,1.57,3.5,3.5Z"/><path class="uuid-f95b36de-9766-472a-9bba-08244ee75778" d="m181.19,218.39c0,1.93-1.57,3.5-3.5,3.5s-3.5-1.57-3.5-3.5,1.57-3.5,3.5-3.5,3.5,1.57,3.5,3.5Z"/><path class="uuid-f95b36de-9766-472a-9bba-08244ee75778" d="m137.94,228.29c0,1.93-1.57,3.5-3.5,3.5s-3.5-1.57-3.5-3.5,1.57-3.5,3.5-3.5,3.5,1.57,3.5,3.5Z"/><path class="uuid-f95b36de-9766-472a-9bba-08244ee75778" d="m227.15,223.6c0,1.23-1,2.23-2.23,2.23s-2.23-1-2.23-2.23,1-2.23,2.23-2.23,2.23,1,2.23,2.23Z"/><path class="uuid-f95b36de-9766-472a-9bba-08244ee75778" d="m248.98,227.62c0,1.23-1,2.23-2.23,2.23s-2.23-1-2.23-2.23,1-2.23,2.23-2.23,2.23,1,2.23,2.23Z"/><path class="uuid-f95b36de-9766-472a-9bba-08244ee75778" d="m320.49,220.3c0,1.23-1,2.23-2.23,2.23s-2.23-1-2.23-2.23,1-2.23,2.23-2.23,2.23,1,2.23,2.23Z"/><path class="uuid-f95b36de-9766-472a-9bba-08244ee75778" d="m167.43,228.29c0,1.23-1,2.23-2.23,2.23s-2.23-1-2.23-2.23,1-2.23,2.23-2.23,2.23,1,2.23,2.23Z"/><circle class="uuid-f95b36de-9766-472a-9bba-08244ee75778" cx="229.22" cy="220.3" r="2.23"/><path class="uuid-f95b36de-9766-472a-9bba-08244ee75778" d="m291.02,228.89c0,1.23-1,2.23-2.23,2.23s-2.23-1-2.23-2.23,1-2.23,2.23-2.23,2.23,1,2.23,2.23Z"/><path class="uuid-3d81f160-4d1e-46c3-a772-346386a7e673" d="m329.42,222.08H.21c.11-2.68,1.24-5.09,3.01-6.86,1.87-1.87,4.45-3.03,7.31-3.03h308.57c5.55,0,10.09,4.38,10.33,9.89Z"/><g class="uuid-1ebb1f8f-0f43-4f64-a4e8-fc268225e39b"><path class="uuid-f95b36de-9766-472a-9bba-08244ee75778" d="m38.71,230.8c0,2.81-2.28,5.09-5.09,5.09s-5.09-2.28-5.09-5.09,2.28-5.09,5.09-5.09,5.09,2.28,5.09,5.09Z"/><path class="uuid-f95b36de-9766-472a-9bba-08244ee75778" d="m115.81,230.8c0,2.81-2.28,5.09-5.09,5.09s-5.09-2.28-5.09-5.09,2.28-5.09,5.09-5.09,5.09,2.28,5.09,5.09Z"/><path class="uuid-f95b36de-9766-472a-9bba-08244ee75778" d="m77.43,233.3c0,2.44-1.98,4.41-4.41,4.41s-4.41-1.98-4.41-4.41,1.98-4.41,4.41-4.41,4.41,1.98,4.41,4.41Z"/><path class="uuid-f95b36de-9766-472a-9bba-08244ee75778" d="m190.73,230.8c0,2.81-2.28,5.09-5.09,5.09s-5.09-2.28-5.09-5.09,2.28-5.09,5.09-5.09,5.09,2.28,5.09,5.09Z"/><path class="uuid-f95b36de-9766-472a-9bba-08244ee75778" d="m229.22,233.18c0,2.37-1.92,4.29-4.29,4.29s-4.29-1.92-4.29-4.29,1.92-4.29,4.29-4.29,4.29,1.92,4.29,4.29Z"/><path class="uuid-f95b36de-9766-472a-9bba-08244ee75778" d="m323.36,232.12c0,2.81-2.28,5.09-5.09,5.09s-5.09-2.28-5.09-5.09,2.28-5.09,5.09-5.09,5.09,2.28,5.09,5.09Z"/><path class="uuid-f95b36de-9766-472a-9bba-08244ee75778" d="m265.94,232.12c0,1.93-1.57,3.5-3.5,3.5s-3.5-1.57-3.5-3.5,1.57-3.5,3.5-3.5,3.5,1.57,3.5,3.5Z"/></g></g></g></g></g></g></svg>