<?xml version="1.0" encoding="utf-8"?>
<!-- Generator: Adobe Illustrator 26.5.0, SVG Export Plug-In . SVG Version: 6.00 Build 0)  -->
<svg version="1.1" id="uuid-7203086d-c072-444a-9d9e-e0b3b93cf9aa"
	 xmlns="http://www.w3.org/2000/svg" xmlns:xlink="http://www.w3.org/1999/xlink" x="0px" y="0px" viewBox="0 0 110 98"
	 style="enable-background:new 0 0 110 98;" xml:space="preserve">
<style type="text/css">
	.st0{fill:#F07F54;}
	.st1{fill:#FFFFFF;}
</style>
<g id="uuid-90547e84-16ea-478d-937d-9fca52b03a9b">
	<rect class="st0" width="110" height="98"/>
	<path class="st1" d="M48,25.5L25.5,40.9c-0.9,0.6-1.6,1.6-1.8,2.7c-0.2,1.1,0,2.2,0.7,3.1c0.8,1.1,2,1.8,3.4,1.8
		c0.8,0,1.7-0.3,2.4-0.7l22.7-15.5c0.9-0.6,1.6-1.6,1.7-2.7c0.2-1.1,0-2.2-0.7-3.1C52.5,24.8,49.8,24.3,48,25.5L48,25.5z M51.3,30.1
		L28.7,45.5c-0.7,0.4-1.6,0.3-2-0.4c-0.2-0.3-0.3-0.7-0.2-1c0.1-0.4,0.2-0.7,0.6-0.9l22.6-15.4c0.2-0.2,0.6-0.3,0.8-0.3
		c0.4,0,0.9,0.2,1.2,0.6c0.2,0.3,0.3,0.7,0.2,1C51.7,29.5,51.5,29.9,51.3,30.1z M38.6,87.5c4.3,0,7.7-3.1,7.7-7c0.3-1,3-6,5.5-10.3
		c0.1-0.2,0.2-0.4,0.2-0.7v-5.6c0-0.7-0.6-1.4-1.3-1.4h-0.2v-1.4c0-0.7-0.6-1.4-1.3-1.4L49.1,57l3.7-2.7c0.9-0.7,1.5-1.6,1.7-2.7
		c0.1-1.1-0.1-2.2-0.8-3.1c-1.3-1.8-3.9-2.2-5.7-0.9l-5.1,3.7C42,52,41.4,52.9,41.2,54c-0.1,1.1,0.1,2.2,0.8,3.1
		c0.1,0.2,0.2,0.3,0.3,0.4v2.1c-0.8,0-1.3,0.6-1.3,1.4v1.4h-4.6V61c0-0.7-0.6-1.4-1.3-1.4v-3.7l18.3-12.6c0.9-0.6,1.6-1.6,1.7-2.7
		c0.2-1.1,0-2.2-0.7-3.1c-1.2-1.8-3.9-2.3-5.7-1L25.4,52.6c-0.9,0.6-1.6,1.6-1.7,2.7c-0.2,1.1,0,2.2,0.7,3.1c0.7,1,1.8,1.6,2.9,1.7
		c-0.3,0.2-0.6,0.6-0.6,1.1v1.4h-0.2c-0.8,0-1.3,0.6-1.3,1.4v5.6c0,0.2,0.1,0.5,0.2,0.7c2.5,4.4,5.1,9.3,5.5,10.3
		C30.9,84.4,34.3,87.5,38.6,87.5L38.6,87.5z M27.8,69.2v-3.9h0.2c0.8,0,1.3-0.6,1.3-1.4v-1.4l0,0c0.8,0,1.3-0.6,1.3-1.4v-3
		c0-0.5-0.2-1-0.7-1.2c-0.4-0.2-1-0.2-1.3,0.1l-0.1,0.1c-0.7,0.4-1.6,0.3-2-0.4c-0.2-0.3-0.3-0.7-0.2-1c0.1-0.4,0.2-0.7,0.6-0.9
		L50.1,39c0.7-0.4,1.6-0.3,2,0.4c0.2,0.3,0.3,0.7,0.2,1c-0.1,0.4-0.2,0.7-0.6,0.9l-18.9,13c-0.3,0.3-0.6,0.7-0.6,1.1v5.8
		c0,0.7,0.6,1.4,1.3,1.4V64c0,0.7,0.7,1.4,1.3,1.4h7.3c0.8,0,1.3-0.6,1.3-1.4v-1.4c0.8,0,1.3-0.6,1.3-1.4v-4.1
		c0-0.4-0.2-0.9-0.6-1.1c-0.1-0.1-0.2-0.2-0.3-0.3c-0.2-0.3-0.3-0.7-0.2-1c0.1-0.4,0.2-0.7,0.6-0.9l4.9-3.8c0.7-0.5,1.6-0.3,2,0.3
		c0.2,0.3,0.3,0.7,0.2,1c-0.1,0.4-0.2,0.7-0.6,0.9l-4.3,3.1c-0.3,0.3-0.6,0.7-0.6,1.1v4.7c0,0.7,0.6,1.4,1.3,1.4l0.1,1.4
		c0,0.7,0.6,1.4,1.3,1.4h0.2v3.9c-5.6,10.1-5.6,10.8-5.6,11.2c0,2.5-2.2,4.5-5.2,4.5s-5.2-2-5.2-4.5C33.4,79.9,33.4,79.2,27.8,69.2
		L27.8,69.2z M27.7,37.6c0.8,0,1.6-0.2,2.4-0.7l22-14.8c0.9-0.6,1.6-1.6,1.8-2.7c0.2-1.1,0-2.2-0.7-3.1c-1.2-1.8-3.9-2.3-5.7-1.1
		L25.4,30c-0.9,0.6-1.6,1.6-1.8,2.7c-0.2,1.1,0,2.2,0.7,3.1C25,36.9,26.4,37.6,27.7,37.6L27.7,37.6z M26.8,32.3l22-14.8
		c0.2-0.2,0.6-0.3,0.8-0.3c0.4,0,0.9,0.2,1.2,0.6c0.2,0.3,0.3,0.7,0.2,1c-0.1,0.4-0.3,0.7-0.6,0.9l-22,14.9c-0.7,0.4-1.6,0.3-2-0.4
		c-0.2-0.3-0.3-0.7-0.2-1C26.4,32.8,26.5,32.5,26.8,32.3L26.8,32.3z M27.6,27.5c0.9,0,1.7-0.3,2.4-0.7l9.2-6.4
		c0.9-0.6,1.6-1.6,1.7-2.7c0.2-1.1,0-2.2-0.7-3.1c-1.2-1.8-3.9-2.3-5.7-1L25.3,20c-0.9,0.6-1.6,1.6-1.7,2.7c-0.2,1.1,0,2.2,0.7,3.1
		C25,26.8,26.3,27.5,27.6,27.5z M26.7,22.2l9.2-6.4c0.2-0.2,0.6-0.3,0.8-0.3c0.4,0,0.9,0.2,1.2,0.6c0.2,0.3,0.3,0.7,0.2,1
		c-0.1,0.4-0.2,0.7-0.6,0.9l-9.2,6.4c-0.7,0.4-1.6,0.3-2-0.4c-0.2-0.3-0.3-0.7-0.2-1C26.3,22.7,26.4,22.4,26.7,22.2L26.7,22.2z
		 M85.8,62.5V28.7c0-5.9-1.8-9.1-5.4-9.4c-1-5.5-4.6-6.4-6.8-6.4c-0.1,0-0.1,0-0.2,0c-2.2,0-5.7,1-6.7,6.4c-3.6,0.3-5.4,3.4-5.4,9.4
		v33.9c-0.7,0.1-1.1,0.7-1.1,1.3v5.6c0,0.2,0.1,0.5,0.2,0.7c0,0,0.6,1,1.3,2.5c0.6,3.5,1.8,5.8,3.6,6.8c0.3,0.7,0.4,0.9,0.4,1.1
		c0.1,3.8,3.5,6.9,7.6,7h0.1h0.1h0.1c4.2-0.1,7.5-3.2,7.5-7c0-0.1,0.1-0.4,0.4-1.1c1.8-1,3-3.3,3.6-6.8c0.8-1.4,1.3-2.5,1.3-2.5
		c0.1-0.2,0.2-0.4,0.2-0.7v-5.6C86.9,63.2,86.4,62.7,85.8,62.5L85.8,62.5z M84.2,69.2c-0.2,0.4-0.7,1.3-1.3,2.4
		c-0.1,0.1-0.1,0.3-0.1,0.4c-0.4,2.8-1.3,4.7-2.5,5.1c-0.3,0.1-0.6,0.4-0.8,0.7c-0.9,1.8-1,2.2-1,2.5c0,2.4-2.2,4.4-5.1,4.5h-0.1
		c-2.8,0-5.1-2-5.1-4.5c0-0.4-0.1-0.8-1-2.5c-0.1-0.3-0.4-0.6-0.8-0.7c-1-0.4-2-2.3-2.5-5.1c0-0.2-0.1-0.3-0.1-0.4
		c-0.6-1.1-1.1-1.9-1.3-2.4v-3.9c0.7-0.1,1.1-0.7,1.1-1.3V28.7c0-4.6,1-6.7,3.3-6.7c0.1,0,0.3,0,0.4,0c0.3,0,0.7,0,1-0.3
		c0.3-0.2,0.4-0.6,0.4-0.9c0.3-3.5,1.8-5.2,4.4-5.2c0,0,0,0,0.1,0c2.6,0,4,1.7,4.4,5.2c0,0.4,0.2,0.7,0.4,0.9c0.3,0.2,0.7,0.3,1,0.3
		c0.1,0,0.3,0,0.4,0c2.1,0,3.3,2.1,3.3,6.7v35.2c0,0.7,0.4,1.2,1.1,1.3v4H84.2z M79.9,23.2c-0.2,0-0.7,0.1-1,0.5l-0.1,0.2v35.9
		c0,1.3-0.1,2.6-0.3,3.8l-0.1,0.7h3.5V28.7C81.8,25.1,81.2,23.2,79.9,23.2L79.9,23.2z M80.6,63.2h-0.9c0.1-1.1,0.2-2.2,0.2-3.3V24.4
		c0.2,0.1,0.8,1.4,0.8,4.3v34.5H80.6z M73.5,16.8c-2.8,0-3.1,3.2-3.1,5.5v5.2c0,0.4,0,0.8,0,1v32c0,1.3,0.2,2.5,0.4,3.6
		c0.1,0.6,0.7,1,1.2,1h2.7c0.6,0,1.1-0.4,1.2-1c0.3-1.1,0.4-2.3,0.6-3.6V28.7c0-0.3,0-0.6,0-1.1v-5.2C76.7,20,76.3,16.9,73.5,16.8
		L73.5,16.8z M74,60.5c0,0.7-0.1,1.4-0.2,2h-0.6c-0.1-0.6-0.2-1.3-0.2-2V28.7c0-0.3,0-0.7,0-1.1v-5.2c0-2.3,0.4-2.9,0.3-2.9h0.1
		c0,0,0.4,0.5,0.4,2.9v5.1c0,0.4,0,0.8,0,1.1L74,60.5L74,60.5z M68.2,59.8V23.9l-0.1-0.2c-0.3-0.4-0.7-0.5-1-0.5
		c-1.2,0-1.9,1.8-1.9,5.4v35.7h3.5l-0.1-0.7C68.4,62.4,68.2,61.1,68.2,59.8L68.2,59.8z M66.3,63.2V28.7c0-2.7,0.4-3.9,0.8-4.2v35.3
		c0,1.1,0.1,2.3,0.2,3.3L66.3,63.2L66.3,63.2z"/>
</g>
</svg>
