<?xml version="1.0" encoding="utf-8"?>
<!-- Generator: Adobe Illustrator 26.5.0, SVG Export Plug-In . SVG Version: 6.00 Build 0)  -->
<svg version="1.1" id="uuid-884d9102-5ffc-4422-9e55-71a40adb0096"
	 xmlns="http://www.w3.org/2000/svg" xmlns:xlink="http://www.w3.org/1999/xlink" x="0px" y="0px" viewBox="0 0 110 98"
	 style="enable-background:new 0 0 110 98;" xml:space="preserve">
<style type="text/css">
	.st0{fill:#4ACCD4;}
	.st1{fill:#F07F54;}
</style>
<g id="uuid-066c2688-e090-4187-bb9e-49b8fd26d0f0">
	<rect class="st0" width="110" height="98"/>
	<g>
		<g>
			<g>
				<path class="st1" d="M43.1,46.8V56c-0.2,1-6.1,3.5-14.7,3.5S13.8,57,13.7,56v-9.2c3.3,1.7,10.1,2.2,14.7,2.2
					S39.8,48.5,43.1,46.8z"/>
				<path class="st1" d="M43.1,16.1v9.7c-0.2,0.9-5.5,2.7-14.7,2.7S14,26.8,13.7,25.8v-9.7c3.3,1.7,10.1,2.2,14.7,2.2
					S39.8,17.8,43.1,16.1z"/>
				<path class="st1" d="M31.1,41.2c0,1.3-1.2,2.3-2.7,2.3s-2.7-1-2.7-2.3c0-0.9,1.3-4,2.7-6.5C29.6,37.3,31.1,40.3,31.1,41.2z"/>
			</g>
			<g>
				<path d="M43.8,12.5V55c0,3.1-8.6,5.3-16.5,5.3S10.8,58.1,10.8,55V12.5c0-0.4,0.2-0.7,0.4-0.8c1.9-2.2,9.2-3.2,15.9-3.2
					s14.1,1,15.9,3.2C43.6,11.8,43.8,12.1,43.8,12.5z M42,55v-9.2C38.7,47.5,31.9,48,27.3,48s-11.4-0.5-14.7-2.2V55
					c0.2,1,6.1,3.5,14.7,3.5S41.8,56,42,55z M42,43.6V27.1c-3.3,1.7-10.1,2.2-14.7,2.2s-11.4-0.5-14.7-2.2v16.5
					c0.2,0.9,5.5,2.6,14.7,2.6l0,0C36.4,46.2,41.6,44.5,42,43.6z M42,24.8v-9.7c-3.3,1.7-10.1,2.2-14.7,2.2s-11.4-0.5-14.7-2.2v9.7
					c0.2,0.9,5.5,2.7,14.7,2.7S41.6,25.8,42,24.8z M42,12.9L42,12.9c-0.6-1.1-6.2-2.7-14.6-2.7s-14.1,1.6-14.7,2.6l0,0
					c0.3,0.9,5.6,2.6,14.7,2.6S41.6,13.9,42,12.9L42,12.9z"/>
				<path d="M31.8,40.2c0,2.3-2,4.1-4.5,4.1s-4.5-1.8-4.5-4.1c0-1.9,3.1-7.7,3.7-8.8c0.1-0.3,0.4-0.4,0.8-0.4s0.6,0.1,0.8,0.4
					C28.6,32.5,31.8,38.3,31.8,40.2L31.8,40.2z M27.3,42.5c1.5,0,2.7-1,2.7-2.3c0-0.9-1.5-4-2.7-6.5c-1.3,2.5-2.7,5.6-2.7,6.5
					C24.6,41.5,25.8,42.5,27.3,42.5z"/>
			</g>
		</g>
		<g>
			<g>
				<path class="st1" d="M53.4,50.8l-0.8,5.8l3.9,7.3l2.5-0.6l0.7-6.7c0-0.3,0.2-0.6,0.6-0.7l14.9-3.3l0.2-1.5l-15.5,3.5
					c-0.3,0.1-0.6,0-0.8-0.3L55.9,50L53.4,50.8L53.4,50.8z"/>
				<path class="st1" d="M60.5,88.5v4.1H99v-4.1H60.5z"/>
				<path class="st1" d="M100.5,45.4l-15.4,3.5c0.1,0.2,0.1,0.4,0.2,0.6c0,0,0,0,0,0.1c0,0.2,0.1,0.4,0.1,0.6v0.1l15.4-3.5
					L100.5,45.4L100.5,45.4z"/>
			</g>
			<path d="M53,49.2c0-0.3,0.2-0.5,0.6-0.6l3.5-1c0.3-0.1,0.7,0,0.8,0.3l3.3,4.3l15.6-3.5c0.7-2.1,2.6-3.6,4.8-3.6
				c1.5,0,2.8,0.7,3.7,1.7l16.6-3.8c0.4-0.1,0.8,0.2,0.9,0.5l0.8,2.9c0,0.2,0,0.4-0.1,0.6c-0.1,0.2-0.2,0.3-0.4,0.4h-0.1v20.3
				c0,0.4-0.3,0.8-0.8,0.8c-0.4,0-0.8-0.3-0.8-0.8v-20L86.7,51l4.2,35.2h10c0.4,0,0.8,0.3,0.8,0.8v5.7c0,0.4-0.3,0.8-0.8,0.8H60.7
				c-0.4,0-0.8-0.3-0.8-0.8V87c0-0.4,0.3-0.8,0.8-0.8h11.3L76,53.4l-13.8,3.1l-0.7,6.7c0,0.3-0.2,0.6-0.6,0.7l-1.2,0.3v14
				c0,0.4-0.3,0.8-0.8,0.8c-0.4,0-0.8-0.3-0.8-0.8V64.5l-0.8,0.2c0,0-0.1,0-0.2,0c-0.2,0-0.6-0.2-0.7-0.4l-4.4-8.1
				C52,56.1,52,55.9,52,55.7L53,49.2L53,49.2z M57.6,63l2.5-0.6l0.7-6.7c0-0.3,0.2-0.6,0.6-0.7l14.9-3.4l0.2-1.5l-15.5,3.5
				c-0.3,0.1-0.6,0-0.8-0.3L57,49l-2.5,0.7l-0.8,5.8L57.6,63L57.6,63z M100,91.8v-4.1H61.5v4.1H100z M89.2,86.1l-1-9l-14.1,5.4
				l-0.4,3.6H89.2z M87.1,76l-11.3-7.2l-1.5,12.1L87.1,76L87.1,76z M86.4,62.9l-1.1-9.6c-0.9,1.1-2.4,1.9-3.9,1.9
				c-1.6,0-2.9-0.7-3.9-1.9l-1.6,13C76,66.2,86.4,62.9,86.4,62.9z M86.7,64.5l-9.9,3.1l11.1,7C87.9,74.6,86.7,64.5,86.7,64.5z
				 M78,50.9c0,0.1,0,0.2,0.1,0.2c0.1,0.2,0.1,0.5,0.3,0.7c0.3,0.5,0.8,1,1.2,1.3c0.6,0.3,1.1,0.5,1.8,0.5c1.8,0,3.4-1.5,3.5-3.3
				l0,0c0-0.1,0-0.1,0-0.3s0-0.4-0.1-0.6c0-0.1,0-0.2-0.1-0.3c0-0.1-0.1-0.2-0.1-0.3s-0.1-0.2-0.1-0.3c0,0,0-0.1-0.1-0.1
				c-0.1-0.1-0.1-0.3-0.2-0.4l0,0c-0.7-0.9-1.7-1.5-2.8-1.5c-1.9,0-3.5,1.6-3.5,3.6c0,0.2,0,0.4,0.1,0.6C78,50.7,78,50.8,78,50.9
				L78,50.9z M86.2,48.7C86.2,48.7,86.3,48.7,86.2,48.7c0.1,0.3,0.1,0.4,0.1,0.6v0.1l15.4-3.5l-0.3-1.4L86,48
				C86.1,48.2,86.2,48.5,86.2,48.7L86.2,48.7z"/>
		</g>
	</g>
</g>
</svg>
