<?xml version="1.0" encoding="utf-8"?>
<!-- Generator: Adobe Illustrator 26.5.0, SVG Export Plug-In . SVG Version: 6.00 Build 0)  -->
<svg version="1.1" id="uuid-ec7c300b-66aa-4ec7-aa2f-fc330c9a6ab2"
	 xmlns="http://www.w3.org/2000/svg" xmlns:xlink="http://www.w3.org/1999/xlink" x="0px" y="0px" viewBox="0 0 220 98"
	 style="enable-background:new 0 0 220 98;" xml:space="preserve">
<style type="text/css">
	.st0{fill:#6CCC41;}
	.st1{fill:#FFFFFF;}
</style>
<g id="uuid-1758a25d-2469-4e2e-a634-1fce5dc3f035">
	<rect class="st0" width="220" height="98"/>
	<g>
		<path d="M62.3,15.7c-10.6,0-19.1,8.6-19.1,19.1c0,5.6,2.4,10.9,6.7,14.5c1.2,1,2.4,3,2.4,4.5v4.3h-1.9v9.7c0,3.6,1.5,6.9,4.1,9.1
			c1.1,1.8,4.1,3,7.7,3.1h0.1l0,0c0,0,0,0,0.1,0c4.1,0,7.4-1.4,8.3-3.5c1-1,1.9-2.3,2.4-3.6h0.3l0.1-0.7h-0.1
			c0.6-1.3,0.8-2.9,0.8-4.4v-9.7h-1.9V54c0-1.5,1.2-3.5,2.3-4.5c4.3-3.6,6.7-9,6.7-14.5C81.4,24.3,72.8,15.7,62.3,15.7L62.3,15.7z
			 M62.4,78.9c-2.8,0-5.1-0.7-5.2-1.5h10.3C67.5,78.2,65.3,78.9,62.4,78.9z M70.2,74.9h-16c-1-1.2-1.8-2.6-2.2-4.3l19.6,2.2
			C71.2,73.5,70.8,74.3,70.2,74.9L70.2,74.9z M72,72.1l-20-2.2c-0.1-0.7-0.2-1.3-0.2-2v-1.5l21,2.3C72.6,69.9,72.4,71.1,72,72.1
			L72,72.1z M72.7,67.9C72.7,67.9,72.7,68,72.7,67.9l-21-2.2l-0.1,0.6v-4.1l21,2.3C72.7,64.5,72.7,67.9,72.7,67.9z M72.7,59.6v4.2
			l-20.9-2.3L51.7,62v-2.4H72.7L72.7,59.6z M58.4,32.8c0.6,0.2,1.1,0.3,1.7,0.3c0.7,0,1.3-0.1,2-0.4c0.6,0.2,1.1,0.4,1.8,0.4
			c0.4,0,0.8-0.1,1.2-0.2c0,0.3,0.2,0.7,0.4,1c0.6,0.7,1.4,1.2,2.5,1.2c0.1,0,0.2,0,0.3,0l-3.3,11c-0.6-1.1-1.7-1.9-3-1.9
			s-2.5,0.8-3,2l-3.9-11.1h0.1c1.1,0,2-0.6,2.5-1.2C58.2,33.6,58.4,33.2,58.4,32.8L58.4,32.8z M61.3,31.7c-0.8-1-0.4-2.3,0.7-3
			c1.2,0.7,1.5,2,0.8,3c-0.2,0.2-0.4,0.4-0.8,0.6C61.7,32.1,61.5,31.9,61.3,31.7z M64.6,47.5v10.7h-5.2V47.5c0-1.4,1.2-2.6,2.6-2.6
			S64.6,46.1,64.6,47.5z M73.8,48.4C72.4,49.6,71,51.9,71,54v4.2h-5.6V47.5l3.7-12.8l-0.2-0.1v-0.1h-0.1l-0.2-0.1v0.1
			c-1.1,0.1-2.2-0.3-2.8-1c-0.2-0.3-0.3-0.7-0.3-1h0.1l-0.1-0.1c0-0.1,0.1-0.2,0.1-0.3l-0.3-0.2c-0.1,0.1-0.1,0.3-0.2,0.4
			c-0.9,0.3-1.8,0.3-2.5-0.1c0.3-0.2,0.6-0.4,0.8-0.7c1-1.2,0.6-2.6-0.9-3.5l-0.3,0.1c0,0,0,0-0.1,0h-0.1l-0.2,0.2
			c-1.1,0.8-1.4,2.3-0.7,3.4c0.2,0.2,0.4,0.4,0.7,0.7c-1,0.4-2.2,0.4-3.2,0l0,0c0-0.1-0.1-0.2-0.1-0.4L58,32.2
			c0.2,0.4,0.2,1-0.2,1.4c-0.6,0.7-1.4,1.1-2.5,1v-0.2l-0.3,0.1c-0.1,0-0.2,0-0.2-0.1v0.1l0,0v0.2h0.1l4,12.8v10.7h-5.2V54
			c0-2.1-1.4-4.4-2.9-5.6c-4-3.4-6.3-8.3-6.3-13.5c0-9.8,7.9-17.8,17.8-17.8S80.1,25,80.1,34.9C80.1,40.2,77.8,45,73.8,48.4
			L73.8,48.4z"/>
		<path d="M161.3,15.7c-10.6,0-19.1,8.6-19.1,19.1c0,5.6,2.4,10.9,6.7,14.5c1.2,1,2.3,3,2.3,4.5v4.3h-1.9v9.7c0,3.6,1.5,6.9,4.1,9.1
			c1.1,1.8,4.1,3,7.7,3.1h0.1l0,0h0.1c4.1,0,7.4-1.4,8.3-3.5c1-1,1.9-2.3,2.4-3.6h0.3l0.1-0.7h-0.1c0.6-1.3,0.8-2.9,0.8-4.4v-9.7
			h-1.9V54c0-1.5,1.2-3.5,2.3-4.5c4.3-3.6,6.7-9,6.7-14.5C180.4,24.3,171.9,15.7,161.3,15.7L161.3,15.7z M161.4,78.9
			c-2.8,0-5.1-0.7-5.2-1.5h10.3C166.5,78.2,164.3,78.9,161.4,78.9L161.4,78.9z M169.2,74.9h-16c-1-1.2-1.8-2.6-2.2-4.3l19.6,2.2
			C170.2,73.5,169.8,74.3,169.2,74.9L169.2,74.9z M171,72.1l-20-2.2c-0.1-0.7-0.2-1.3-0.2-2v-1.5l21,2.3
			C171.6,69.9,171.4,71.1,171,72.1L171,72.1z M171.7,67.9C171.7,67.9,171.7,68,171.7,67.9l-21-2.2l-0.1,0.6v-4.1l21,2.3
			C171.7,64.5,171.7,67.9,171.7,67.9z M171.7,59.6v4.2l-20.9-2.3l-0.1,0.6v-2.4H171.7L171.7,59.6z M157.4,32.8
			c0.6,0.2,1.1,0.3,1.7,0.3c0.7,0,1.3-0.1,2-0.4c0.6,0.2,1.1,0.4,1.8,0.4c0.4,0,0.8-0.1,1.2-0.2c0,0.3,0.1,0.7,0.4,1
			c0.6,0.7,1.5,1.2,2.5,1.2c0.1,0,0.2,0,0.3,0l-3.3,11c-0.6-1.1-1.7-1.9-3-1.9c-1.3,0-2.5,0.8-3,2l-3.9-11.1h0.1
			c1.1,0,2.1-0.6,2.5-1.2C157.2,33.6,157.4,33.2,157.4,32.8L157.4,32.8z M160.3,31.7c-0.8-1-0.4-2.3,0.7-3c1.2,0.7,1.5,2,0.7,3
			c-0.2,0.2-0.4,0.4-0.7,0.6C160.7,32.1,160.5,31.9,160.3,31.7z M163.6,47.5v10.7h-5.2V47.5c0-1.4,1.2-2.6,2.6-2.6
			C162.5,44.9,163.6,46.1,163.6,47.5z M172.8,48.4c-1.4,1.2-2.9,3.5-2.9,5.6v4.2h-5.6V47.5l3.7-12.8l-0.2-0.1v-0.1h-0.1l-0.2-0.1
			v0.1c-1.1,0.1-2.2-0.3-2.8-1c-0.2-0.3-0.3-0.7-0.3-1h0.1l-0.1-0.1c0-0.1,0.1-0.2,0.1-0.3l-0.3-0.2c-0.1,0.1-0.1,0.3-0.1,0.4
			c-0.9,0.3-1.8,0.3-2.5-0.1c0.3-0.2,0.6-0.4,0.8-0.7c1-1.2,0.6-2.6-0.9-3.5l-0.1-0.1h-0.1h-0.1l-0.2,0.2c-1.2,0.8-1.5,2.3-0.8,3.4
			c0.2,0.2,0.4,0.4,0.7,0.7c-1,0.4-2.2,0.4-3.2,0l0,0c0-0.1-0.1-0.2-0.1-0.4l-0.3,0.2c0.2,0.4,0.2,1-0.2,1.4c-0.6,0.7-1.4,1.1-2.5,1
			l-0.1-0.2l-0.3,0.1c-0.1,0-0.2,0-0.2-0.1l-0.1,0.1l0,0l-0.1,0.2h0.1l4.2,12.7v11h-5.2V54c0-2.1-1.4-4.4-2.9-5.6
			c-4-3.4-6.3-8.3-6.3-13.5c0-9.8,7.9-17.8,17.8-17.8c9.9,0,17.8,7.9,17.8,17.8C179.1,40.2,176.8,45,172.8,48.4L172.8,48.4z"/>
		<path class="st1" d="M112.9,80.1c10.6,0,19.1-8.6,19.1-19.1c0-5.6-2.4-10.9-6.7-14.5c-1.2-1-2.4-3-2.4-4.5v-4.2h1.9v-9.7
			c0-3.6-1.5-6.9-4.1-9.1c-1.1-1.8-4.1-3-7.7-3.1h-0.1l0,0h-0.1c-4.1,0-7.4,1.4-8.3,3.5c-1,1-1.9,2.3-2.4,3.6h-0.3l-0.1,0.6h0.1
			c-0.6,1.3-0.8,2.9-0.8,4.4v9.7h1.9v4.2c0,1.5-1.2,3.5-2.4,4.5c-4.3,3.6-6.7,8.9-6.7,14.5C93.7,71.5,102.3,80.1,112.9,80.1
			L112.9,80.1z M112.8,16.9c2.8,0,5.1,0.7,5.2,1.5h-10.3C107.7,17.6,110,16.9,112.8,16.9z M105,20.9h16c1,1.2,1.8,2.8,2.2,4.3
			L103.5,23C104,22.3,104.4,21.6,105,20.9L105,20.9z M103.2,23.8l20,2.2c0.1,0.7,0.2,1.3,0.2,2v1.5l-21-2.3
			C102.5,26,102.8,24.8,103.2,23.8L103.2,23.8z M102.4,27.9C102.4,27.9,102.4,27.8,102.4,27.9l21,2.2l0.1-0.6v4.1l-21-2.3
			C102.4,31.4,102.4,27.9,102.4,27.9z M102.4,36.2V32l21,2.3l0.1-0.6v2.4H102.4L102.4,36.2z M116.8,63c-0.6-0.2-1.1-0.3-1.7-0.3
			c-0.7,0-1.3,0.1-2,0.4c-0.6-0.2-1.1-0.4-1.8-0.4c-0.4,0-0.8,0.1-1.2,0.2c0-0.3-0.2-0.7-0.4-1c-0.6-0.7-1.4-1.2-2.5-1.2
			c-0.1,0-0.2,0-0.3,0l3.2-11.1c0.6,1.1,1.7,1.9,3,1.9s2.5-0.8,3-2l3.7,11.1h-0.1c-1.1,0-2,0.6-2.5,1.2
			C117,62.3,116.8,62.6,116.8,63L116.8,63z M113.9,64.2c0.8,1,0.4,2.3-0.7,3c-1.2-0.8-1.5-2-0.8-3c0.2-0.2,0.4-0.4,0.8-0.6
			C113.4,63.8,113.7,63.9,113.9,64.2z M110.6,48.3V37.6h5.2v10.7c0,1.4-1.2,2.6-2.6,2.6S110.6,49.7,110.6,48.3z M101.3,47.4
			c1.4-1.2,2.9-3.5,2.9-5.6v-4.2h5.6v10.7l-3.7,12.8l0.2,0.1v0.1h0.1l0.2,0.1v-0.1c1.1-0.2,2.2,0.3,2.8,1c0.2,0.3,0.3,0.7,0.3,1
			h-0.1l0.1,0.1c0,0.1-0.1,0.2-0.1,0.3l0.3,0.2c0.1-0.1,0.1-0.3,0.2-0.4c0.9-0.3,1.8-0.3,2.5,0.1c-0.3,0.2-0.6,0.3-0.8,0.7
			c-1,1.2-0.6,2.6,0.9,3.5l0.1,0.1h0.1h0.1l0.2-0.2c1.2-0.8,1.5-2.3,0.8-3.4c-0.2-0.2-0.4-0.4-0.7-0.7c1-0.4,2.2-0.4,3.2,0l0,0
			c0,0.1,0.1,0.2,0.1,0.4l0.3-0.2c-0.2-0.4-0.2-1,0.2-1.4c0.6-0.7,1.4-1.1,2.5-1l0.1,0.2l0.3-0.1c0.1,0,0.2,0,0.2,0.1l0.1-0.2l0,0
			l0.1-0.2h-0.1l-4.2-12.9V37.6h5.2v4.2c0,2.1,1.4,4.4,2.9,5.6c4,3.4,6.3,8.3,6.3,13.5c0,9.8-7.9,17.8-17.8,17.8s-17.8-8-17.8-17.8
			C95.1,55.8,97.4,50.8,101.3,47.4L101.3,47.4z"/>
	</g>
</g>
</svg>
