<?xml version="1.0" encoding="utf-8"?>
<!-- Generator: Adobe Illustrator 26.5.0, SVG Export Plug-In . SVG Version: 6.00 Build 0)  -->
<svg version="1.1" id="uuid-f4b4ae37-689a-4557-9e45-1821c3b7a251"
	 xmlns="http://www.w3.org/2000/svg" xmlns:xlink="http://www.w3.org/1999/xlink" x="0px" y="0px" viewBox="0 0 110 98"
	 style="enable-background:new 0 0 110 98;" xml:space="preserve">
<style type="text/css">
	.st0{fill:#6CCC41;}
	.st1{clip-path:url(#SVGID_00000067213920447410034880000008362707119807101094_);}
	.st2{fill:#FFFFFF;}
</style>
<g id="uuid-c4678488-09e8-437e-a76c-7da82197b21f">
	<rect class="st0" width="110" height="98"/>
	<g>
		<g>
			<defs>
				<rect id="SVGID_1_" width="110" height="98"/>
			</defs>
			<clipPath id="SVGID_00000019662392084701273830000006593251281881932455_">
				<use xlink:href="#SVGID_1_"  style="overflow:visible;"/>
			</clipPath>
			<g style="clip-path:url(#SVGID_00000019662392084701273830000006593251281881932455_);">
				<path class="st2" d="M15.8,37.3c-0.2,0-0.3,0-0.6-0.1c-0.4-0.3-0.7-0.8-0.4-1.3l3.5-9.5l-7.9-0.3c-0.3,0-0.7-0.2-0.9-0.5
					c-0.2-0.3-0.2-0.7,0-1l8.5-16.9c0.2-0.4,0.7-0.7,1-0.7l10.6,0.3c0.4,0,0.8,0.3,1,0.7c0.1,0.4,0.1,0.8-0.2,1.1l-9.9,11l8.3-0.3
					c0.4,0,0.8,0.2,1,0.6c0.2,0.4,0.1,0.8-0.1,1.2L16.6,37C16.4,37.2,16.2,37.4,15.8,37.3L15.8,37.3z M12.2,24l7.7,0.3
					c0.3,0,0.7,0.2,0.9,0.5s0.2,0.7,0.1,1L19.1,31l7.5-8.8l-8.4,0.3c-0.4,0-0.8-0.2-1-0.6c-0.2-0.4-0.1-0.9,0.2-1.2l10-11.2
					l-7.5-0.2L12.2,24z"/>
				<path class="st2" d="M61.4,44.9c-0.1,0-0.3,0-0.4,0c-0.4-0.1-0.7-0.5-0.7-0.9l0.6-8.1l-6.1,1.6c-0.3,0.1-0.6,0-0.8-0.2
					c-0.2-0.2-0.3-0.5-0.2-0.8l2.7-14.9c0.1-0.3,0.3-0.6,0.6-0.7l8.1-2.2c0.3-0.1,0.7,0,0.9,0.3c0.2,0.3,0.2,0.6,0.1,0.9l-5.1,10.7
					l6.3-2.1c0.3-0.1,0.7,0,0.9,0.2c0.2,0.3,0.3,0.6,0.1,0.9L62,44.3C61.7,44.6,61.6,44.8,61.4,44.9L61.4,44.9z M55.6,35.6l5.9-1.6
					c0.2-0.1,0.6,0,0.8,0.2s0.3,0.4,0.3,0.7l-0.3,4.4l3.7-8.5L59.7,33c-0.3,0.1-0.7,0-0.9-0.2c-0.2-0.2-0.2-0.6-0.1-0.9L63.8,21
					l-5.8,1.6L55.6,35.6L55.6,35.6z"/>
				<path class="st2" d="M7.7,61c-0.1-0.1-0.2-0.3-0.2-0.5c-0.1-0.5,0.1-1,0.6-1.2l8.6-4l-5.1-5.5c-0.2-0.3-0.3-0.6-0.2-1
					c0.1-0.3,0.3-0.6,0.7-0.7L29,42.6c0.3-0.1,0.8,0,1,0.3l6.8,7.3c0.2,0.3,0.3,0.7,0.2,1.1c-0.1,0.4-0.4,0.6-0.9,0.6l-13.9,0.7
					l5.7,5.4c0.3,0.3,0.4,0.7,0.2,1.1c-0.1,0.4-0.4,0.7-0.9,0.7L8.5,61.3C8.2,61.3,8,61.2,7.7,61L7.7,61z M14.1,49.6l4.9,5.4
					c0.2,0.2,0.3,0.6,0.2,0.9s-0.2,0.6-0.6,0.7L14,58.8L24.9,58l-5.8-5.5c-0.3-0.3-0.4-0.7-0.2-1.1c0.2-0.4,0.4-0.7,0.9-0.7l14-0.7
					l-4.9-5.3L14.1,49.6L14.1,49.6z"/>
				<path class="st2" d="M90,78.2c27.9,0,50.6-23,50.6-51.3c0-15-6.5-29.2-17.7-38.9c-3-2.7-6.3-7.9-6.3-12.2v-11.1h4.8v-25.9
					c0-9.7-4.2-18.4-10.7-24.4c-2.9-4.7-10.9-8-20.4-8.2c-0.1,0-0.2,0-0.3,0h-0.1c-0.1,0-0.1,0-0.2,0c-10.7,0-19.4,3.9-21.8,9.4
					c-2.7,2.8-4.9,6.1-6.5,9.7l-0.8,0l-0.2,1.9h0.3c-1.3,3.6-2.1,7.5-2.1,11.7v25.9h4.8v11.1c0,4.2-3.1,9.5-6.3,12.2
					C45.8-2.1,39.4,12.1,39.4,27C39.4,55.2,62.1,78.2,90,78.2L90,78.2z M89.6-90.5c7.4,0,13.4,1.8,13.7,4.1H75.9
					C76.2-88.7,82.2-90.5,89.6-90.5z M68.9-79.9H111c2.7,3.3,4.7,7.2,5.7,11.5l-51.5-5.8C66.2-76.2,67.5-78.2,68.9-79.9z M64.4-72.4
					l52.8,5.9c0.3,1.7,0.4,3.5,0.4,5.3v4.1l-55.3-6.2C62.6-66.5,63.3-69.6,64.4-72.4z M62.3-61.1c0-0.1,0-0.2,0-0.3l55.3,6.2
					l0.1-1.5v10.9L62.3-52V-61.1L62.3-61.1z M62.3-39v-11.2l55.3,6.2l0.1-1.5v6.5H62.3z M100.2,32.6c-1.3-0.5-2.8-0.8-4.3-0.8
					c-1.8,0-3.6,0.4-5.2,1.2c-1.3-0.7-3-1.2-4.6-1.2c-1,0-2.1,0.2-3.1,0.5c-0.1-0.9-0.4-1.9-1.1-2.7c-1.3-1.7-3.9-3.1-6.7-3.1
					c-0.3,0-0.6,0-0.9,0.1L82.8-3c1.3,3,4.4,5.1,7.9,5.1c3.5,0,6.6-2.2,8-5.3l9.8,29.7c-0.1,0-0.2,0-0.3,0c-2.8,0-5.4,1.4-6.7,3.1
					C100.6,30.6,100.2,31.6,100.2,32.6L100.2,32.6z M92.5,35.7c1.9,2.7,1.1,6.1-1.7,8c-3.1-1.9-4-5.3-1.9-8c0.6-0.6,1.1-1.2,1.9-1.6
					C91.5,34.5,92,35.1,92.5,35.7z M83.8-6.7v-28.6h13.7v28.6c0,3.8-3,6.9-6.8,6.9C86.9,0.2,83.8-2.9,83.8-6.7z M59.6-9.2
					c3.7-3.2,7.5-9.4,7.5-15v-11.1h14.8v28.4l-9.9,34.2l0.6,0.2l0.1,0.2c0.1,0,0.2-0.1,0.4-0.1l0.7,0.2l0.1-0.4
					c2.9-0.4,5.7,0.9,7.2,2.7c0.7,0.8,1,1.7,0.9,2.5c-0.1,0-0.2,0.1-0.3,0.1l0.3,0.4c-0.1,0.3-0.1,0.6-0.3,0.9l0.8,0.5
					c0.2-0.4,0.3-0.8,0.4-1.2c2.2-0.9,4.7-0.8,6.7,0.2c-0.8,0.5-1.5,1-1.9,1.7c-2.5,3.1-1.5,7.2,2.4,9.3l0.3,0.4
					c0.1,0,0.1-0.1,0.2-0.1s0.1,0.1,0.2,0.1l0.4-0.6c3.3-2.2,4.2-6.1,1.9-9.2c-0.4-0.6-1-1.2-1.7-1.6c2.5-1.1,5.7-1.2,8.4,0l0.1-0.1
					c0.1,0.4,0.2,0.7,0.4,1.1l0.8-0.5c-0.7-1.2-0.4-2.6,0.6-3.9c1.3-1.7,3.9-2.9,6.6-2.7l0.1,0.5l0.9-0.3c0.2,0,0.4,0.1,0.7,0.2
					l0.1-0.4l0,0l0.1-0.4c-0.1,0-0.2,0-0.3-0.1L99.4-6.9v-28.4H113v11.1c0,5.6,3.8,11.8,7.5,15c10.3,9.1,16.4,22.2,16.4,36.1
					c0,26.2-21,47.5-46.9,47.5S43.1,53.1,43.1,26.9C43.1,13,49.2-0.1,59.6-9.2L59.6-9.2z"/>
				<g>
					<path class="st2" d="M54.2,64.1c-19.8,20-19.8,52.5,0,72.5c10.4,10.6,24.9,16,39.7,14.8c4-0.3,10,1.1,12.9,4.1l7.7,7.9
						l-3.4,3.5l18.1,18.3c6.7,6.9,15.8,10.1,24.6,9.6c5.4,1.2,13.2-2.1,20.2-8.9c0.1-0.1,0.1-0.1,0.2-0.2c0,0,0-0.1,0.1-0.1l0.1-0.1
						c7.5-7.7,11-16.6,8.8-22.2c0-3.9-0.8-7.8-2.1-11.6l0.7-0.5l-1.1-1.5l-0.2,0.2c-1.6-3.5-3.8-6.9-6.6-9.8l-18.1-18.3l-3.4,3.5
						l-7.7-7.9c-2.9-3-4.4-9-4-13.1c1.1-15-4.2-29.7-14.6-40.3C106,44.1,73.9,44.1,54.2,64.1L54.2,64.1z M172.2,183.1
						c-5.2,5.3-10.8,8.3-12.6,6.9l19.3-19.6C180.4,172.2,177.5,177.8,172.2,183.1L172.2,183.1z M179.4,160.8L149.6,191
						c-4.3-0.4-8.3-1.7-12.1-4l40.5-32.8C178.7,156.3,179.3,158.6,179.4,160.8z M177.3,152.3l-41.5,33.6c-1.5-1-2.8-2.1-4-3.4
						l-2.8-2.9l43.4-35.3C174.5,146.8,176.2,149.5,177.3,152.3L177.3,152.3z M171.1,142.8c0.1,0.1,0.1,0.1,0.2,0.2l-43.4,35.2
						l0.9,1.2l-7.6-7.7l43.6-35.3L171.1,142.8L171.1,142.8z M155.6,127.1l7.9,7.9L120,170.2l0.9,1.2l-4.5-4.6L155.6,127.1
						L155.6,127.1z M78.8,103.6c1.3-0.6,2.6-1.5,3.6-2.5c1.2-1.3,2.2-2.9,2.8-4.5c1.5-0.5,2.9-1.3,4-2.5c0.8-0.7,1.3-1.6,1.8-2.6
						c0.7,0.6,1.6,1,2.7,1.1c2.1,0.2,4.9-0.6,7-2.6c0.2-0.2,0.3-0.4,0.6-0.7l14.6,27c-3-1.1-6.6-0.5-9.1,2s-3.1,6.3-1.9,9.4
						l-27.6-14c0.1-0.1,0.1-0.1,0.2-0.2c2-2,2.8-4.8,2.6-7C80,105.3,79.5,104.4,78.8,103.6L78.8,103.6z M82.1,95.9
						c-3.3-0.5-5.1-3.5-4.4-6.9c3.6-0.9,6.5,0.9,7,4.3c0.1,0.8,0,1.7-0.2,2.5C83.6,96,82.8,96,82.1,95.9z M117.7,119.7l20,20.2
						l-9.7,9.8l-20-20.2c-2.7-2.7-2.7-7.1,0-9.8S115.2,117,117.7,119.7z M136.7,104.1c-0.4,5,1.2,12.1,5.2,16l7.7,7.9l-10.6,10.6
						l-19.9-20.1l-16.9-31.3l-0.6,0.3l-0.2-0.1c-0.1,0.1-0.1,0.2-0.2,0.4l-0.7,0.4l0.2,0.4c-1.8,2.4-4.7,3.5-7,3.3
						c-1-0.1-1.9-0.5-2.5-1.1c0-0.1,0.1-0.2,0.1-0.3L91,90.4c-0.1-0.3-0.3-0.5-0.3-0.8l-0.9,0.2c0.1,0.4,0.3,0.8,0.6,1.2
						c-0.9,2.2-2.8,3.9-4.9,4.7c0.2-0.9,0.2-1.7,0.2-2.6c-0.4-4-4-6.1-8.2-4.9L77,88c0,0.1,0,0.2-0.1,0.3c-0.1,0-0.2,0.1-0.2,0.1
						l0.1,0.7C76,93,78.1,96.4,81.8,97c0.8,0.1,1.6,0.1,2.4,0c-1,2.6-3.3,4.9-5.9,6v0.2c-0.3-0.2-0.7-0.4-1-0.5l-0.2,0.9
						c1.3,0.3,2.1,1.5,2.4,3.2c0.2,2.1-0.7,4.9-2.8,6.7l-0.4-0.2l-0.4,0.9c-0.2,0.1-0.3,0.3-0.6,0.4l0.2,0.4l0,0l0.2,0.4
						c0.1,0,0.2-0.1,0.2-0.2L107,131l19.9,20.1l-9.5,9.7l-7.7-7.9c-3.9-3.9-10.9-5.6-15.8-5.2c-13.7,1.1-27.2-3.9-36.8-13.7
						c-18.3-18.5-18.3-48.7,0-67.2s48-18.5,66.3,0C132.8,76.6,137.7,90.2,136.7,104.1L136.7,104.1z"/>
					<path class="st2" d="M25.5,184c-30.8,0-55.8-25.4-55.8-56.6s25-56.6,55.9-56.6s55.9,25.4,55.9,56.6S56.3,184,25.5,184z
						 M25.5,74.4c-28.8,0-52.3,23.8-52.3,53s23.5,53,52.3,53s52.3-23.8,52.3-53S54.3,74.4,25.5,74.4z"/>
				</g>
			</g>
		</g>
	</g>
</g>
</svg>
