<?xml version="1.0" encoding="utf-8"?>
<!-- Generator: Adobe Illustrator 26.5.0, SVG Export Plug-In . SVG Version: 6.00 Build 0)  -->
<svg version="1.1" id="uuid-fdc657de-f6b4-4fb3-91d1-5674fba0e4cb"
	 xmlns="http://www.w3.org/2000/svg" xmlns:xlink="http://www.w3.org/1999/xlink" x="0px" y="0px" viewBox="0 0 98 220"
	 style="enable-background:new 0 0 98 220;" xml:space="preserve">
<style type="text/css">
	.st0{fill:#EDEDED;}
	.st1{clip-path:url(#SVGID_00000147918273580849368820000017232850507142407307_);}
	.st2{fill:#F07F54;}
</style>
<g id="uuid-0184fadf-0f2d-4fc6-aaec-a89fe3f871eb">
	<rect class="st0" width="98" height="220"/>
	<g>
		<g>
			<g>
				<defs>
					<rect id="SVGID_1_" width="98" height="220"/>
				</defs>
				<clipPath id="SVGID_00000086671805058051750550000014412363803172469390_">
					<use xlink:href="#SVGID_1_"  style="overflow:visible;"/>
				</clipPath>
				<g style="clip-path:url(#SVGID_00000086671805058051750550000014412363803172469390_);">
					<path class="st2" d="M15.5,111.2c-0.9,1.2-5.4,7.3-5.8,9.7c-0.5,2.8,1.1,5.6,3.6,6.3c2.5,0.7,5-1,5.5-3.7
						c0.4-2.4-1.4-10.2-1.7-11.7C16.9,110.9,15.9,110.7,15.5,111.2L15.5,111.2z M17,122.9c-0.3,1.6-1.8,2.5-3.3,2s-2.5-2-2.2-3.6
						c0.2-1.1,2.3-4.4,4.3-7.1C16.5,117.7,17.2,121.8,17,122.9z M37.1,92.2c-1.4-3.3-8.6-6.5-15.5-8.4c-6.9-1.9-14.6-2.9-17-0.7
						c-0.3,0-0.6,0.3-0.7,0.8L-6,135.4c-0.7,3.8,7.6,8.9,15.5,11.1c7.9,2.2,17.3,2,18-1.7l9.9-51.5C37.5,92.8,37.4,92.4,37.1,92.2
						L37.1,92.2z M28.4,130.4c-0.5,1-6.3,1.7-15.6-1c-9.3-2.6-14.3-6.2-14.3-7.4l3.9-20.1c2.9,3,9.8,5.6,14.4,6.8
						c4.6,1.3,11.8,2.7,15.5,1.5L28.4,130.4L28.4,130.4z M32.7,107.6c-0.5,1-6.2,1.7-15.6-1s-14.2-6.2-14.3-7.3l2.3-11.8
						c2.9,3,9.8,5.6,14.4,6.8c4.6,1.3,11.8,2.7,15.5,1.5L32.7,107.6L32.7,107.6z M21.2,85.9c8.7,2.5,14,5.9,14.3,7.4l0,0
						c-0.6,1-6.3,1.6-15.5-1c-9.3-2.6-14.2-6.2-14.3-7.4l0,0C6.5,83.7,12.5,83.4,21.2,85.9L21.2,85.9z M9.9,144.3
						c-8.8-2.5-14.2-7.1-14.1-8.4l2.1-11.1c2.9,3,9.8,5.6,14.4,6.8s11.8,2.7,15.5,1.5l-2.1,11.1C25.3,145.5,18.7,146.7,9.9,144.3
						L9.9,144.3z"/>
					<path d="M84.9,87.9c0.9,1.7,1.7,3.4,2.5,4.8l-4.8,4c-0.5,0.4-0.7,1.1-0.6,1.8s0.6,1.2,1.1,1.3l19.8,4.3c0.1,0,0.2,0,0.3,0
						c0.7,0,1.3-0.6,1.4-1.3c0.6-3.7,1.1-7,1.6-10.2c0.6-4.2,1.2-8.1,2.1-13c0.1-0.7-0.1-1.3-0.6-1.8c-0.5-0.3-1.1-0.3-1.6,0
						c-1.4,1.1-2.3,1.9-3.2,2.7c-0.5,0.3-0.9,0.8-1.5,1.2c-0.3-0.7-0.7-1.5-1.1-2.4c-2.6-5.7-5.9-12.9-10.8-13.7
						c-3.6-0.6-8.2-0.9-12.7-1.2c-2.4-0.2-4.6-0.3-6.5-0.6c-0.4-0.1-0.8-0.1-1.1,0.1C64,66.6,60.8,73.6,58,79.9
						c-0.8,1.9-1.6,3.6-2.4,5.2c-0.2,0.4-0.3,0.9-0.2,1.3s0.4,0.8,0.7,1l14,9c0.7,0.4,1.5,0.1,1.9-0.7l8.4-16.6
						C82,82.2,83.5,85.2,84.9,87.9L84.9,87.9z M79.1,75.3l-8.9,17.5l-11.5-7.3c0.6-1.2,1.1-2.5,1.7-3.8c2.6-5.9,5.3-12,9.5-14.3l0,0
						c1.9,0.2,4.2,0.3,6.6,0.6c4.5,0.3,9.1,0.7,12.6,1.2s6.3,6.8,8.6,11.9c0.7,1.5,1.3,2.8,1.9,4c0.2,0.4,0.5,0.7,0.9,0.8
						s0.8,0,1.1-0.2c1.1-0.9,1.9-1.6,2.7-2.2c0.1-0.1,0.2-0.2,0.3-0.2c-0.5,3.1-1,6.1-1.4,8.9c-0.4,2.7-0.8,5.5-1.3,8.5l-15-3.3
						l3.1-2.7c0.6-0.6,0.8-1.6,0.4-2.4c-1-1.8-2.1-3.9-3.2-6.2c-1.7-3.5-3.7-7.4-5.8-10.9c-0.3-0.4-0.8-0.8-1.2-0.8
						C79.8,74.5,79.4,74.9,79.1,75.3z M70,131.3l-16.1-1.5c1.4-3,2.9-5.9,4.3-8.6c0.9-1.7,1.7-3.4,2.5-4.8l5.2,3.4
						c0.5,0.3,1.1,0.2,1.6-0.2c0.4-0.4,0.6-1.1,0.5-1.8l-5.9-23.1c-0.2-0.9-1-1.5-1.7-1.1c-3,1-5.6,1.9-8.2,2.9
						c-3.4,1.2-6.6,2.4-10.6,3.7c-0.6,0.2-1,0.8-1.1,1.5c-0.1,0.7,0.2,1.3,0.8,1.7c1.5,0.9,2.4,1.6,3.4,2.2c0.5,0.3,1,0.7,1.6,1
						c-0.4,0.7-0.8,1.5-1.2,2.2c-3.1,5.5-6.9,12.2-5.2,17.8c1.3,4.2,3.1,9.3,4.9,14.4c0.9,2.6,1.8,5.1,2.5,7.1
						c0.1,0.2,0.1,0.3,0.2,0.6c0.1,0.2,0.2,0.4,0.4,0.6c4.3,4.5,11,4.6,16.9,4.7c1.8,0,3.4,0.1,5,0.2h0.1c0.4,0,0.7-0.1,1-0.4
						s0.5-0.8,0.5-1.2l0.2-19.1C71.3,132.2,70.7,131.4,70,131.3L70,131.3z M68.2,150.3c-1.2-0.1-2.4-0.1-3.6-0.1
						c-5.5-0.1-11.3-0.2-14.8-3.7l0,0c-0.7-2.1-1.6-4.6-2.6-7.2c-1.7-4.7-3.6-10.2-4.9-14.1c-1.2-3.9,2.2-9.9,4.9-14.7
						c0.8-1.3,1.5-2.7,2.1-3.9c0.2-0.4,0.3-0.9,0.1-1.3c-0.1-0.4-0.4-0.8-0.7-1c-1.2-0.8-2.1-1.3-2.9-1.9c-0.1-0.1-0.2-0.1-0.3-0.2
						c2.6-0.9,4.9-1.8,7.2-2.6c2.2-0.8,4.4-1.6,6.8-2.5l4.5,17.6l-3.4-2.1c-0.7-0.4-1.5-0.1-1.9,0.7c-0.9,1.9-1.9,3.9-3.1,6.2
						c-1.8,3.5-3.8,7.3-5.4,11.2c0,0-0.1,0.1-0.1,0.2c-0.2,0.6-0.1,1.1,0.1,1.6c0.2,0.4,0.6,0.8,1.1,0.8l17,1.6L68.2,150.3
						L68.2,150.3z M110.9,102.3c-0.2-0.4-0.5-0.7-0.9-0.8s-0.8,0-1.1,0.2l-13.2,10.6c-0.6,0.4-0.8,1.5-0.4,2.2l8.1,16.8
						c-2.9,0.3-5.8,0.6-8.5,0.7c-1.6,0.1-3.2,0.2-4.6,0.3l-0.7-7.1c-0.1-0.7-0.5-1.2-1-1.5c-0.6-0.2-1.1,0-1.5,0.6l-12.5,19
						c-0.5,0.8-0.4,1.8,0.2,2.4c2.4,2.5,4.6,4.5,6.7,6.6c2.7,2.7,5.3,5.2,8.4,8.3c0.3,0.2,0.6,0.4,0.9,0.4c0.2,0,0.5-0.1,0.7-0.2
						c0.5-0.3,0.8-1,0.7-1.7c-0.2-2-0.3-3.4-0.4-4.8c-0.1-0.7-0.1-1.2-0.2-2c0.7,0,1.4,0,2.2,0c5.5,0,12.3-0.1,15.1-4.9
						c2.1-3.6,4.6-8.3,7-13c1.2-2.4,2.4-4.7,3.5-6.6c0.1-0.1,0.2-0.3,0.2-0.4c0.1-0.2,0.2-0.4,0.2-0.7c0.6-6.7-3.1-13.5-6.3-19.4
						C112.6,105.6,111.7,103.9,110.9,102.3L110.9,102.3z M117,126.1c-1.1,1.9-2.3,4.3-3.5,6.7c-2.4,4.6-4.8,9.3-6.9,12.8
						c-2,3.5-8,3.5-12.8,3.5c-1.4,0-2.7,0-3.8,0.1c-0.4,0-0.8,0.2-1,0.6c-0.3,0.3-0.4,0.8-0.3,1.3c0.1,1.6,0.2,2.7,0.3,3.8
						c0,0.2,0,0.3,0.1,0.6c-2-2-3.9-3.8-5.7-5.6c-1.8-1.8-3.6-3.5-5.6-5.5l9.5-14.5l0.4,4.6c0.1,0.9,0.8,1.6,1.5,1.5
						c1.7-0.2,3.7-0.3,5.9-0.4c3.4-0.2,7.2-0.4,10.8-1c0.5-0.1,0.9-0.4,1.1-0.9c0.2-0.6,0.2-1.1,0-1.7l-8.6-17.7l10.8-8.6
						c0.6,1.2,1.3,2.4,2,3.7C114.2,114.8,117.4,120.7,117,126.1L117,126.1L117,126.1z"/>
					<path class="st2" d="M40.5-32.2c-0.4-0.7-1.2-0.9-1.8-0.6l-52,31.3c-0.6,0.3-0.9,1.2-0.7,2L0.4,54.7c0.1,0.4,0.4,0.9,0.8,1
						c0.4,0.2,0.8,0.2,1.2,0l23.8-14.4l1.7,17.5l-7.3,4.4c-0.7,0.4-1,1.5-0.6,2.2l2.4,5.8c0.3,0.8,1.2,1.1,1.9,0.8l42.1-25.4
						c0.7-0.4,1-1.5,0.6-2.2l-2.4-5.8c-0.3-0.8-1.2-1.1-1.9-0.8l-9.4,5.7L42.6,31.3l23.5-14.1l0,0c0.7-0.4,1-1.5,0.6-2.2
						c-0.1-0.2-0.2-0.3-0.3-0.4L40.5-32.2z M-3.8,28.2l9.5-5.7l3.1,10L-1,38.4L-3.8,28.2L-3.8,28.2z M-7.3,14.7l8.9-5.4l3.1,10
						l-9.3,5.6L-7.3,14.7L-7.3,14.7z M50.4-8.3l-9.1,5.5l-4.5-9.1l8.8-5.3C45.5-17.2,50.4-8.3,50.4-8.3z M38.8-1.3l-9.1,5.5
						l-4.1-9.3l8.6-5.2L38.8-1.3L38.8-1.3z M18.8,10.8l-3.6-9.7l7.9-4.7l4.1,9.3C27.2,5.7,18.8,10.8,18.8,10.8z M28.6,8.6l4.1,9.3
						l-9.3,5.6l-3.5-9.7L28.6,8.6L28.6,8.6z M24.3-8.1L20-17.7l0,0l8.1-4.9c0,0.1,0,0.1,0.1,0.2l4.6,9.2L24.3-8.1L24.3-8.1z
						 M21.8-6.6L14.1-2l-3.6-9.9L10.4-12l7.1-4.3v0.1L21.8-6.6L21.8-6.6z M8-10.6l3.6,10L3.1,4.6L0-5.4c0-0.1-0.1-0.2-0.1-0.2
						L8-10.6L8-10.6z M12.8,2.6l3.5,9.7l-9.1,5.5l-3.1-10L12.8,2.6L12.8,2.6z M8.2,20.9l9.2-5.5l3.5,9.7l-9.6,5.8L8.2,20.9L8.2,20.9
						z M22,28.2l3.5,9.7L15.3,44l-3.1-10L22,28.2L22,28.2z M24.5,26.7L34,21l4.1,9.3L28,36.4L24.5,26.7L24.5,26.7z M36.5,19.4
						l9.7-5.8l4.5,9.1l-10.2,6.2L36.5,19.4L36.5,19.4z M35.2,16.5l-4.1-9.3l9.2-5.5l4.5,9.1L35.2,16.5L35.2,16.5z M42.8,0.1l9.3-5.6
						l4.8,8.9l-9.6,5.8C47.3,9.1,42.8,0.1,42.8,0.1z M43.9-20l-8.6,5.2l-4.7-9.4l8.2-4.9L43.9-20z M-11,0.9l8.4-5.1L0.6,6.2
						l-8.8,5.3L-11,0.9L-11,0.9z M-0.2,41.5l9.9-5.9l3.1,10L2.5,51.7L-0.2,41.5L-0.2,41.5z M63.8,44.3L24.2,68.2L23,65.4l39.6-23.9
						L63.8,44.3z M30.5,57.1l-1.7-17.5l11.1-6.7L50.5,45L30.5,57.1L30.5,57.1z M53.3,21.1L48.8,12l9.8-5.9l4.9,8.9
						C63.5,15,53.3,21.1,53.3,21.1z"/>
					<path class="st2" d="M47.8,176.4h-6v-12.7c0-0.8-0.5-1.5-1.2-1.5h-3.3c-0.6,0-1.2,0.7-1.2,1.5v12.7H19.8v-12.7
						c0-0.8-0.5-1.5-1.2-1.5h-3.3c-0.6,0-1.2,0.7-1.2,1.5v12.7h-6c-0.6,0-1.2,0.7-1.2,1.5v7.6c0,0.8,0.5,1.5,1.2,1.5h39.6
						c0.6,0,1.2-0.7,1.2-1.5v-7.6C49,177.1,48.5,176.4,47.8,176.4z M38.5,165.2h1v11.3h-1V165.2z M16.5,165.2h1v11.3h-1V165.2z
						 M46.6,184.1H9.3v-4.8h37.3V184.1L46.6,184.1z M46.9,188.8H9.1c-0.6,0-1.2,0.7-1.2,1.5v16.9c0,0.1,0,0.3,0.1,0.4l4.9,16.3
						c0.2,0.6,0.6,0.9,1.1,0.9h10v17.1c0,0.8,0.5,1.5,1.2,1.5h5.6c0.6,0,1.2-0.7,1.2-1.5v-17.1h10c0.5,0,0.9-0.3,1.1-0.9l4.9-16.3
						c0-0.1,0.1-0.3,0.1-0.4v-16.9C48.1,189.4,47.6,188.8,46.9,188.8L46.9,188.8z M29.6,240.4h-3.3v-15.6h3.3V240.4z M45.7,206.9
						L41.2,222H14.8l-4.5-15.2v-15.3h35.5L45.7,206.9L45.7,206.9z M18.6,208.1c1.6,0,2.8-1.6,2.8-3.4c0-1.8-1.3-3.4-2.8-3.4
						c-1.6,0-2.8,1.6-2.8,3.4C15.8,206.5,17.1,208.1,18.6,208.1z M18.6,204.1c0.3,0,0.5,0.2,0.5,0.6c0,0.3-0.2,0.6-0.5,0.6
						s-0.5-0.2-0.5-0.6C18.2,204.4,18.4,204.1,18.6,204.1z M37.3,208.1c1.6,0,2.8-1.6,2.8-3.4c0-1.8-1.3-3.4-2.8-3.4
						s-2.8,1.6-2.8,3.4C34.5,206.5,35.8,208.1,37.3,208.1z M37.3,204.1c0.3,0,0.5,0.2,0.5,0.6c0,0.3-0.2,0.6-0.5,0.6
						s-0.5-0.2-0.5-0.6C36.8,204.4,37.1,204.1,37.3,204.1z"/>
					<path d="M64.3,212.3c-0.2,0-0.4,0-0.5-0.1c-0.4-0.2-0.7-0.9-0.5-1.5l2.6-11.2l-7.6,0.4c-0.4,0-0.7-0.2-0.9-0.6
						c-0.2-0.3-0.2-0.8-0.1-1.2l6.8-20.1c0.1-0.4,0.5-0.8,0.9-0.8l10.1-0.7c0.4,0,0.8,0.2,1,0.7c0.2,0.4,0.1,0.9-0.1,1.3l-8.6,13.6
						l7.9-1.1c0.4,0,0.8,0.2,1,0.6c0.2,0.4,0.2,0.9-0.1,1.3L65,211.7C64.8,212,64.6,212.1,64.3,212.3L64.3,212.3z M59.7,197.3
						l7.4-0.4c0.3,0,0.6,0.1,0.9,0.4c0.3,0.3,0.3,0.7,0.2,1.1l-1.4,6.2l6.5-10.8l-8,1.1c-0.4,0.1-0.8-0.2-1-0.6
						c-0.2-0.3-0.2-1,0.1-1.3l8.7-13.7l-7.3,0.6L59.7,197.3L59.7,197.3z"/>
					<path d="M79.6,21.3c-0.2,0-0.4,0-0.5-0.1c-0.4-0.2-0.7-0.9-0.5-1.5l2.6-11.2L73.5,9c-0.4,0-0.7-0.2-0.9-0.6
						c-0.2-0.3-0.2-0.8-0.1-1.2l6.8-20.1c0.1-0.4,0.5-0.8,0.9-0.8l10.1-0.7c0.4,0,0.8,0.2,1,0.7c0.2,0.4,0.1,0.9-0.1,1.3L82.7,1.2
						l7.9-1.1c0.4,0,0.8,0.2,1,0.6c0.2,0.4,0.2,0.9-0.1,1.3L80.3,20.8C80.2,21.1,79.9,21.3,79.6,21.3L79.6,21.3z M75.1,6.5l7.4-0.4
						c0.3,0,0.6,0.1,0.9,0.4s0.3,0.7,0.2,1.1l-1.4,6.2L88.7,3l-8,1.1c-0.4,0.1-0.8-0.2-1-0.6c-0.2-0.4-0.2-1,0.1-1.3l8.7-13.7
						l-7.3,0.6L75.1,6.5L75.1,6.5z"/>
					<path class="st2" d="M93.8,229.3c-0.3,0-0.6,0-0.9-0.2c-0.7-0.4-1.1-1.5-0.9-2.4l4.3-18.5L83.8,209c-0.6,0-1.1-0.3-1.5-0.9
						c-0.3-0.6-0.4-1.3-0.2-1.9l11.4-33.3c0.2-0.8,0.8-1.2,1.5-1.2l16.8-1.2c0.7,0,1.3,0.3,1.6,1.1c0.3,0.7,0.3,1.6-0.1,2.2
						l-14.2,22.4l13.1-1.9c0.7-0.1,1.3,0.3,1.7,1c0.3,0.7,0.3,1.6-0.1,2.2l-18.6,31C94.8,229,94.3,229.2,93.8,229.3L93.8,229.3z
						 M86.3,204.7l12.2-0.7c0.5,0,1.1,0.2,1.4,0.8c0.3,0.6,0.5,1.2,0.3,1.8l-2.4,10.2l10.7-18l-13.2,1.9c-0.7,0.1-1.3-0.3-1.7-1
						c-0.3-0.7-0.3-1.6,0.1-2.2l14.4-22.7l-12,0.9L86.3,204.7L86.3,204.7z"/>
					<path class="st2" d="M84.8,53.1c-0.1,0.1-0.2,0.1-0.3,0.1c-0.3,0-0.6-0.2-0.7-0.7L82.3,45l-4.4,3.3c-0.2,0.1-0.4,0.1-0.7,0
						c-0.2-0.1-0.4-0.3-0.4-0.7l-1.4-14.4c0-0.3,0.1-0.7,0.3-0.8l5.7-4.4c0.2-0.2,0.5-0.1,0.7,0c0.2,0.2,0.3,0.4,0.3,0.8L81,40.1
						l4.3-3.7c0.2-0.2,0.5-0.2,0.7,0c0.2,0.1,0.4,0.4,0.3,0.8l-1.5,15.4C85.1,52.8,84.9,52.9,84.8,53.1L84.8,53.1z M78.1,46.1
						l4.2-3.1c0.2-0.1,0.4-0.1,0.6-0.1c0.2,0.1,0.4,0.3,0.4,0.6l0.8,4.2l0.9-8.9l-4.4,3.8c-0.2,0.2-0.5,0.2-0.8,0
						c-0.2-0.1-0.4-0.4-0.3-0.8L81,30.4l-4.1,3.1L78.1,46.1L78.1,46.1z"/>
					<path class="st2" d="M45.1,88.2c-0.1,0-0.2,0-0.3,0c-0.2-0.1-0.4-0.4-0.3-0.8l1.2-5.8l-3.9,0.3c-0.2,0-0.4-0.1-0.5-0.2
						c-0.1-0.2-0.1-0.4-0.1-0.6l3.3-10.6c0.1-0.2,0.2-0.4,0.4-0.4l5.3-0.6c0.2,0,0.4,0.1,0.5,0.3c0.1,0.2,0.1,0.4,0,0.7l-4.3,7.2
						l4.1-0.8c0.2,0,0.4,0.1,0.5,0.3c0.1,0.2,0.1,0.4,0,0.7l-5.6,10C45.5,88.1,45.3,88.2,45.1,88.2L45.1,88.2z M42.6,80.6l3.8-0.3
						c0.2,0,0.3,0.1,0.4,0.2C47,80.6,47,80.8,47,81l-0.7,3.1l3.2-5.7l-4.1,0.8c-0.2,0-0.4-0.1-0.5-0.3c-0.1-0.2-0.1-0.4,0-0.7
						l4.3-7.3l-3.8,0.4L42.6,80.6L42.6,80.6z"/>
				</g>
			</g>
		</g>
	</g>
</g>
</svg>
