<?xml version="1.0" encoding="utf-8"?>
<!-- Generator: Adobe Illustrator 26.5.0, SVG Export Plug-In . SVG Version: 6.00 Build 0)  -->
<svg version="1.1" id="uuid-ae698d9b-7b8a-4d00-b67b-a95a326c0c4b"
	 xmlns="http://www.w3.org/2000/svg" xmlns:xlink="http://www.w3.org/1999/xlink" x="0px" y="0px" viewBox="0 0 110 98"
	 style="enable-background:new 0 0 110 98;" xml:space="preserve">
<style type="text/css">
	.st0{fill:#F07F54;}
	.st1{fill:#4ACCD4;}
	.st2{fill:#6CCC41;}
</style>
<g id="uuid-95561182-3cf7-4def-b9af-57d675a18819">
	<rect class="st0" width="110" height="98"/>
	<g>
		<g>
			<g>
				<polygon class="st1" points="49.4,18.3 49.4,20.5 28.5,20.5 28.5,18.3 31.9,18.3 33.8,18.3 44.2,18.3 46,18.3 				"/>
				<rect x="44.9" y="11.6" class="st1" width="0.6" height="5.3"/>
				<rect x="38.1" y="39.6" class="st1" width="1.8" height="7.3"/>
				<rect x="32.6" y="11.6" class="st1" width="0.6" height="5.3"/>
			</g>
			<g>
				<path d="M50.7,17.6v3.6c0,0.4-0.3,0.7-0.7,0.7H27.8c-0.3,0-0.7-0.3-0.7-0.7v-3.6c0-0.4,0.3-0.7,0.7-0.7h3.4v-6
					c0-0.4,0.3-0.7,0.7-0.7h1.8c0.3,0,0.7,0.3,0.7,0.7v6h9.1v-6c0-0.4,0.3-0.7,0.7-0.7H46c0.3,0,0.7,0.3,0.7,0.7v6h3.4
					C50.4,16.9,50.7,17.2,50.7,17.6L50.7,17.6z M49.4,20.5v-2.2H28.5v2.2H49.4z M45.3,16.9v-5.3h-0.4v5.3H45.3z M33.1,16.9v-5.3
					h-0.6v5.3H33.1z"/>
				<path d="M50.2,23.4v8c0,0.1,0,0.2,0,0.2l-2.7,7.7c-0.1,0.3-0.3,0.4-0.7,0.4h-5.6v8c0,0.4-0.3,0.7-0.7,0.7h-3.1
					c-0.3,0-0.7-0.3-0.7-0.7v-8h-5.6c-0.2,0-0.6-0.2-0.7-0.4l-2.7-7.7c0-0.1,0-0.2,0-0.2v-8c0-0.4,0.3-0.7,0.7-0.7h21.1
					C49.9,22.7,50.2,23,50.2,23.4z M48.8,31.2V24H29.1v7.2l2.6,7.1h14.8L48.8,31.2L48.8,31.2z M39.8,47v-7.3h-1.8V47H39.8z"/>
				<path d="M44.2,28.6c0.9,0,1.6,0.7,1.6,1.6s-0.7,1.6-1.6,1.6c-0.9,0-1.6-0.7-1.6-1.6C42.7,29.3,43.3,28.6,44.2,28.6z M44.4,30.2
					c0-0.2-0.1-0.3-0.2-0.3c-0.1,0-0.2,0.1-0.2,0.3c0,0.2,0.1,0.3,0.2,0.3C44.3,30.4,44.4,30.3,44.4,30.2z"/>
				<path d="M33.8,28.6c0.9,0,1.6,0.7,1.6,1.6s-0.7,1.6-1.6,1.6c-0.9,0-1.6-0.7-1.6-1.6C32.2,29.3,32.9,28.6,33.8,28.6z M34,30.2
					c0-0.2-0.1-0.3-0.2-0.3c-0.1,0-0.2,0.1-0.2,0.3c0,0.2,0.1,0.3,0.2,0.3C33.9,30.4,34,30.3,34,30.2z"/>
			</g>
		</g>
		<g>
			<g>
				<polygon class="st2" points="80.9,18.3 80.9,20.5 60.2,20.5 60.2,18.3 63.5,18.3 65.3,18.3 75.8,18.3 77.7,18.3 				"/>
				<rect x="76.4" y="11.6" class="st2" width="0.6" height="5.3"/>
				<rect x="69.6" y="39.6" class="st2" width="1.8" height="7.3"/>
				<rect x="64.1" y="11.6" class="st2" width="0.6" height="5.3"/>
			</g>
			<g>
				<path d="M82.3,17.6v3.6c0,0.4-0.3,0.7-0.7,0.7H59.5c-0.3,0-0.7-0.3-0.7-0.7v-3.6c0-0.4,0.3-0.7,0.7-0.7h3.4v-6
					c0-0.4,0.3-0.7,0.7-0.7h1.8c0.3,0,0.7,0.3,0.7,0.7v6h9.1v-6c0-0.4,0.3-0.7,0.7-0.7h1.9c0.3,0,0.7,0.3,0.7,0.7v6h3.4
					C81.9,16.9,82.3,17.2,82.3,17.6L82.3,17.6z M80.9,20.5v-2.2H60.2v2.2H80.9z M77,16.9v-5.3h-0.6v5.3H77z M64.7,16.9v-5.3h-0.6
					v5.3H64.7z"/>
				<path d="M81.8,23.4v8c0,0.1,0,0.2,0,0.2l-2.7,7.7c-0.1,0.3-0.3,0.4-0.7,0.4h-5.6v8c0,0.4-0.3,0.7-0.7,0.7H69
					c-0.3,0-0.7-0.3-0.7-0.7v-8h-5.6c-0.2,0-0.6-0.2-0.7-0.4l-2.7-7.7c0-0.1,0-0.2,0-0.2v-8c0-0.4,0.3-0.7,0.7-0.7h21.1
					C81.5,22.7,81.8,23,81.8,23.4z M80.5,31.2V24H60.6v7.2l2.6,7.1H78L80.5,31.2L80.5,31.2z M71.5,47v-7.3h-1.9V47H71.5z"/>
				<path d="M75.8,28.6c0.9,0,1.6,0.7,1.6,1.6s-0.7,1.6-1.6,1.6s-1.6-0.7-1.6-1.6C74.2,29.3,74.9,28.6,75.8,28.6z M76,30.2
					c0-0.2-0.1-0.3-0.2-0.3s-0.2,0.1-0.2,0.3c0,0.2,0.1,0.3,0.2,0.3S76,30.3,76,30.2z"/>
				<path d="M65.3,28.6c0.9,0,1.6,0.7,1.6,1.6s-0.7,1.6-1.6,1.6c-0.9,0-1.6-0.7-1.6-1.6C63.8,29.3,64.4,28.6,65.3,28.6z M65.6,30.2
					c0-0.2-0.1-0.3-0.2-0.3c-0.1,0-0.2,0.1-0.2,0.3s0.1,0.3,0.2,0.3C65.4,30.4,65.6,30.3,65.6,30.2z"/>
			</g>
		</g>
		<g>
			<g>
				<polygon class="st2" points="49.4,59.9 49.4,62.1 28.5,62.1 28.5,59.9 31.9,59.9 33.8,59.9 44.2,59.9 46,59.9 				"/>
				<rect x="44.9" y="53.2" class="st2" width="0.6" height="5.3"/>
				<rect x="38.1" y="81.3" class="st2" width="1.8" height="7.3"/>
				<rect x="32.6" y="53.2" class="st2" width="0.6" height="5.3"/>
			</g>
			<g>
				<path d="M50.7,59.2v3.6c0,0.4-0.3,0.7-0.7,0.7H27.8c-0.3,0-0.7-0.3-0.7-0.7v-3.6c0-0.4,0.3-0.7,0.7-0.7h3.4v-6
					c0-0.4,0.3-0.7,0.7-0.7h1.8c0.3,0,0.7,0.3,0.7,0.7v6h9.1v-6c0-0.4,0.3-0.7,0.7-0.7H46c0.3,0,0.7,0.3,0.7,0.7v6h3.4
					C50.4,58.5,50.7,58.8,50.7,59.2L50.7,59.2z M49.4,62.1v-2.2H28.5v2.2H49.4z M45.3,58.5v-5.3h-0.4v5.3H45.3z M33.1,58.5v-5.3
					h-0.6v5.3H33.1z"/>
				<path d="M50.2,65v8c0,0.1,0,0.2,0,0.2l-2.7,7.7c-0.1,0.3-0.3,0.4-0.7,0.4h-5.6v8c0,0.4-0.3,0.7-0.7,0.7h-3.1
					c-0.3,0-0.7-0.3-0.7-0.7v-8h-5.6c-0.2,0-0.6-0.2-0.7-0.4l-2.7-7.7c0-0.1,0-0.2,0-0.2v-8c0-0.4,0.3-0.7,0.7-0.7h21.1
					C49.9,64.3,50.2,64.6,50.2,65z M48.8,72.8v-7.2H29.1v7.2l2.6,7.1h14.8L48.8,72.8L48.8,72.8z M39.8,88.6v-7.3h-1.8v7.3H39.8z"/>
				<path d="M44.2,70.2c0.9,0,1.6,0.7,1.6,1.6s-0.7,1.6-1.6,1.6c-0.9,0-1.6-0.7-1.6-1.6S43.3,70.2,44.2,70.2z M44.4,71.8
					c0-0.2-0.1-0.3-0.2-0.3c-0.1,0-0.2,0.1-0.2,0.3s0.1,0.3,0.2,0.3C44.3,72,44.4,71.9,44.4,71.8z"/>
				<path d="M33.8,70.2c0.9,0,1.6,0.7,1.6,1.6s-0.7,1.6-1.6,1.6c-0.9,0-1.6-0.7-1.6-1.6S32.9,70.2,33.8,70.2z M34,71.8
					c0-0.2-0.1-0.3-0.2-0.3c-0.1,0-0.2,0.1-0.2,0.3s0.1,0.3,0.2,0.3C33.9,72,34,71.9,34,71.8z"/>
			</g>
		</g>
		<g>
			<g>
				<polygon class="st1" points="80.9,59.9 80.9,62.1 60.2,62.1 60.2,59.9 63.5,59.9 65.3,59.9 75.8,59.9 77.7,59.9 				"/>
				<rect x="76.4" y="53.2" class="st1" width="0.6" height="5.3"/>
				<rect x="69.6" y="81.3" class="st1" width="1.8" height="7.3"/>
				<rect x="64.1" y="53.2" class="st1" width="0.6" height="5.3"/>
			</g>
			<g>
				<path d="M82.3,59.2v3.6c0,0.4-0.3,0.7-0.7,0.7H59.5c-0.3,0-0.7-0.3-0.7-0.7v-3.6c0-0.4,0.3-0.7,0.7-0.7h3.4v-6
					c0-0.4,0.3-0.7,0.7-0.7h1.8c0.3,0,0.7,0.3,0.7,0.7v6h9.1v-6c0-0.4,0.3-0.7,0.7-0.7h1.9c0.3,0,0.7,0.3,0.7,0.7v6h3.4
					C81.9,58.5,82.3,58.8,82.3,59.2L82.3,59.2z M80.9,62.1v-2.2H60.2v2.2H80.9z M77,58.5v-5.3h-0.6v5.3H77z M64.7,58.5v-5.3h-0.6
					v5.3H64.7z"/>
				<path d="M81.8,65v8c0,0.1,0,0.2,0,0.2l-2.7,7.7c-0.1,0.3-0.3,0.4-0.7,0.4h-5.6v8c0,0.4-0.3,0.7-0.7,0.7H69
					c-0.3,0-0.7-0.3-0.7-0.7v-8h-5.6c-0.2,0-0.6-0.2-0.7-0.4l-2.7-7.7c0-0.1,0-0.2,0-0.2v-8c0-0.4,0.3-0.7,0.7-0.7h21.1
					C81.5,64.3,81.8,64.6,81.8,65z M80.5,72.8v-7.2H60.6v7.2l2.6,7.1H78L80.5,72.8L80.5,72.8z M71.5,88.6v-7.3h-1.9v7.3H71.5z"/>
				<path d="M75.8,70.2c0.9,0,1.6,0.7,1.6,1.6s-0.7,1.6-1.6,1.6s-1.6-0.7-1.6-1.6S74.9,70.2,75.8,70.2z M76,71.8
					c0-0.2-0.1-0.3-0.2-0.3s-0.2,0.1-0.2,0.3s0.1,0.3,0.2,0.3S76,71.9,76,71.8z"/>
				<path d="M65.3,70.2c0.9,0,1.6,0.7,1.6,1.6s-0.7,1.6-1.6,1.6c-0.9,0-1.6-0.7-1.6-1.6S64.4,70.2,65.3,70.2z M65.6,71.8
					c0-0.2-0.1-0.3-0.2-0.3c-0.1,0-0.2,0.1-0.2,0.3s0.1,0.3,0.2,0.3C65.4,72,65.6,71.9,65.6,71.8z"/>
			</g>
		</g>
	</g>
</g>
</svg>
