<?xml version="1.0" encoding="utf-8"?>
<!-- Generator: Adobe Illustrator 26.5.0, SVG Export Plug-In . SVG Version: 6.00 Build 0)  -->
<svg version="1.1" id="uuid-9c1b0741-2f18-4b87-b47c-e5ae7e2cc195"
	 xmlns="http://www.w3.org/2000/svg" xmlns:xlink="http://www.w3.org/1999/xlink" x="0px" y="0px" viewBox="0 0 110 98"
	 style="enable-background:new 0 0 110 98;" xml:space="preserve">
<style type="text/css">
	.st0{fill:#F07F54;}
</style>
<g id="uuid-abad145c-9463-45e2-bf70-4c8c3527743d">
	<rect class="st0" width="110" height="98"/>
	<g>
		<path d="M81.1,58.7H30.7c-1.9,0-3.4-1.7-3.4-3.8s1.5-3.8,3.4-3.8h50.5c1.9,0,3.4,1.7,3.4,3.8S83,58.7,81.1,58.7z M30.7,52.8
			c-1,0-1.8,0.9-1.8,2s0.8,2,1.8,2h50.5c1,0,1.8-0.9,1.8-2s-0.8-2-1.8-2C81.1,52.8,30.7,52.8,30.7,52.8z"/>
		<path d="M26.8,54.7c0-0.1-0.3-0.4-1-0.8c-0.6-0.4-1.6-1-2.3-1.9c-0.8-0.9-1.3-2.3-1.1-3.9c0.1-1.6,0.8-3.4,1.6-5.3l0.6-1.4
			l0.1-0.3l0,0l0,0l0,0l0,0c0,0,0,0,0.1,0.1c0.4,0.3,0.7,0.5,1,0.7l1.9,1.2c1.2,0.7,2.2,1.4,2.9,2.1c1.4,1.4,1.6,2.7,1.8,2.7
			c0.1,0,0.2-0.4,0.1-1s-0.4-1.5-1.1-2.5c-0.7-0.9-1.7-1.8-2.9-2.7l-1.8-1.3c-0.3-0.2-0.6-0.5-0.9-0.7l-0.4-0.3
			c-0.2-0.1-0.3-0.3-0.5-0.4l-1-0.8l-1.1,2.5l-0.6,1.5c-0.8,1.9-1.5,3.9-1.6,5.9c0,1,0.1,2,0.5,2.8c0.3,0.9,0.9,1.5,1.4,2.1
			c1.1,1,2.2,1.4,3,1.6C26.4,54.8,26.8,54.8,26.8,54.7L26.8,54.7z"/>
		<path d="M89.2,42.2l-0.6-1.5l-1.1-2.5l-1,0.8c-0.2,0.1-0.3,0.3-0.5,0.4l-0.4,0.3c-0.3,0.2-0.6,0.5-0.9,0.7l-1.8,1.3
			c-1.2,0.9-2.2,1.7-2.9,2.7c-0.7,0.9-1,1.8-1.1,2.5c-0.1,0.6,0,1,0.1,1c0.3,0,0.4-1.3,1.8-2.7c0.7-0.7,1.7-1.4,2.9-2.1l1.9-1.2
			c0.3-0.2,0.7-0.4,1-0.7c0.1-0.1,0.1,0,0.1-0.1l0,0l0,0l0,0l0,0l0.1,0.3l0.6,1.4c0.8,1.9,1.4,3.7,1.6,5.3s-0.3,3-1.1,3.9
			c-0.8,0.9-1.7,1.5-2.3,1.9c-0.6,0.4-1,0.6-1,0.8c0,0.1,0.5,0.1,1.2-0.1c0.8-0.2,1.9-0.6,3-1.7c0.6-0.5,1.1-1.2,1.4-2.1
			c0.4-0.8,0.5-1.8,0.5-2.8C90.7,46.1,90,44.2,89.2,42.2L89.2,42.2z"/>
		<path d="M79.2,61.8v-3.7H76v3.7h-3.2v-3.7h-3.5v3.7h-3.5v-3.7h-3.9v3.7h-3.8v-3.7h-4.5v3.7h-3.8v-3.7h-3.9v3.7h-3.5v-3.7h-3.5v3.7
			h-3.2v-3.7h-3.2v3.7h-3.2L24.6,78h64.6l-5.9-16.2H79.2L79.2,61.8z M27.5,75.8l3.4-11.6H82l4.2,11.6H27.5z"/>
		<path d="M34.8,47.8c0.6,0.6,1,0.8,1.1,0.7c0.1-0.1-0.1-0.5-0.5-1.1c-0.4-0.7-0.8-1.6-0.8-2.9c-0.1-1.2,0.3-2.7,1.1-4.3
			c0.7-1.6,1.8-3.2,3-4.9l0.2-0.3l0.1-0.1l0,0l0,0l0,0l0,0l0.2,0.2c0.4,0.3,0.7,0.7,1,1c0.7,0.6,1.4,1.1,2,1.6
			c1.3,1,2.4,1.9,3.2,2.7c1.5,1.7,1.8,3.2,2.1,3.2c0.1,0,0.2-0.4,0.1-1.1c-0.1-0.7-0.4-1.7-1.2-2.8c-0.7-1.1-1.9-2.2-3.1-3.2
			c-0.6-0.5-1.3-1.1-1.9-1.7c-0.3-0.3-0.6-0.6-0.9-0.9l-0.3-0.3L39.7,33l-0.9-1.1L37,34.2c-1.2,1.8-2.3,3.5-3,5.3s-1.1,3.6-0.8,5.1
			C33.4,46.2,34.2,47.2,34.8,47.8z"/>
		<path d="M65,43.6c0.3,0.1,0.5-1.5,2.1-3.2c0.8-0.9,1.9-1.7,3.2-2.7c0.6-0.5,1.3-1,2-1.6c0.4-0.3,0.7-0.6,1-1l0.2-0.2l0,0l0,0l0,0
			l0.1,0.1l0.2,0.3c1.2,1.7,2.3,3.3,3,4.9c0.7,1.6,1.1,3.1,1.1,4.3c-0.1,1.2-0.5,2.2-0.8,2.9c-0.4,0.7-0.6,1-0.5,1.1
			s0.5-0.1,1.1-0.7c0.6-0.6,1.3-1.6,1.6-3.1c0.3-1.5-0.1-3.4-0.8-5.1c-0.7-1.8-1.8-3.6-3-5.3L73.6,32l-0.9,1l-0.5,0.5L72,33.8
			c-0.3,0.3-0.6,0.6-0.9,0.9c-0.6,0.6-1.3,1.1-1.9,1.7c-1.2,1.1-2.4,2.1-3.1,3.2c-0.7,1.1-1.1,2.1-1.2,2.8
			C64.8,43.2,64.9,43.6,65,43.6L65,43.6z"/>
		<path d="M49,43.2c1.6,2.4,3,3.6,3.3,3.5s-0.6-1.6-1.6-4s-2.3-5.8-0.4-9.3c0.9-1.7,2.2-3.3,3.3-4.8s2-3,2.5-4.3
			c0-0.1,0.1-0.2,0.1-0.3c0,0.1,0.1,0.2,0.1,0.3c0.4,1.3,1.3,2.8,2.5,4.3c1.1,1.5,2.5,3.1,3.3,4.8c1.8,3.4,0.6,6.9-0.4,9.3
			c-1.1,2.4-2,3.9-1.6,4c0.3,0.1,1.7-1.1,3.3-3.5c0.8-1.2,1.6-2.7,1.9-4.5c0.4-1.8,0.2-3.9-0.8-5.9c-1-2-2.5-3.6-3.7-5
			s-2.2-2.7-2.8-3.9c-1.2-2.3-1.3-3.9-1.7-3.9c0,0,0,0-0.1,0c0,0,0,0-0.1,0c-0.4,0-0.5,1.6-1.7,3.9c-0.6,1.1-1.6,2.4-2.8,3.9
			c-1.2,1.4-2.7,3-3.7,5s-1.2,4.1-0.8,5.9C47.5,40.4,48.2,41.9,49,43.2L49,43.2z"/>
	</g>
</g>
</svg>
