<?xml version="1.0" encoding="utf-8"?>
<!-- Generator: Adobe Illustrator 26.5.0, SVG Export Plug-In . SVG Version: 6.00 Build 0)  -->
<svg version="1.1" id="uuid-fc29a1a6-abd1-45da-9e7e-b82997e2da06"
	 xmlns="http://www.w3.org/2000/svg" xmlns:xlink="http://www.w3.org/1999/xlink" x="0px" y="0px" viewBox="0 0 110 98"
	 style="enable-background:new 0 0 110 98;" xml:space="preserve">
<style type="text/css">
	.st0{fill:#EDEDED;}
	.st1{fill:#4ACCD4;}
</style>
<g id="uuid-b77c0626-93fe-4034-95ba-d5a3099ca42f">
	<rect class="st0" width="110" height="98"/>
	<g>
		<g>
			<path class="st1" d="M86.5,51.2c2.8,4.3,5.7,8.8,5.4,12.9l0,0c-1,1.6-2.1,3.4-3.3,5.2c-2.1,3.5-4.5,7.2-6.3,9.9
				c-1.8,2.6-7.3,2.7-11.8,2.7c-1.2,0-2.5,0-3.5,0.1c-0.3,0-0.7,0.2-0.9,0.5c-0.2,0.3-0.3,0.6-0.3,1c0.1,1.2,0.2,2.1,0.3,2.9
				c0,0.2,0,0.3,0,0.4c-1.9-1.6-3.6-3-5.3-4.3c-1.7-1.4-3.4-2.7-5.2-4.2l8.8-11.1l0.4,3.5c0.1,0.7,0.7,1.2,1.5,1.2
				c1.6-0.1,3.4-0.2,5.4-0.3c3.1-0.1,6.6-0.3,10-0.8c0.4-0.1,0.8-0.3,1-0.7c0.2-0.4,0.2-0.9,0-1.3L75,55.1l9.9-6.7
				C85.3,49.3,85.9,50.2,86.5,51.2L86.5,51.2z"/>
			<path class="st1" d="M80.3,31.3c0.1-0.1,0.2-0.1,0.3-0.2c-0.4,2.4-0.9,4.7-1.2,6.8c-0.3,2.1-0.8,4.2-1.2,6.5L64.3,42l2.9-2
				c0.6-0.4,0.7-1.2,0.3-1.8c-0.9-1.4-1.9-3-2.9-4.7c-1.6-2.7-3.4-5.7-5.3-8.3c-0.2-0.4-0.7-0.6-1.1-0.6s-0.9,0.2-1.1,0.6l-8.1,13.5
				L38.5,33c0.6-0.9,1-1.9,1.6-2.9c2.4-4.6,4.9-9.3,8.6-11l0,0c1.8,0.1,3.8,0.3,6.1,0.4c4.2,0.3,8.3,0.5,11.6,0.9
				c3.1,0.4,5.8,5.3,7.9,9.2c0.7,1.1,1.2,2.2,1.8,3.1c0.2,0.3,0.4,0.5,0.9,0.6c0.3,0.1,0.7,0,1-0.2C78.8,32.3,79.6,31.8,80.3,31.3
				L80.3,31.3z"/>
			<path class="st1" d="M47.4,70.8l-0.2,12.1c-1.1,0-2.1-0.1-3.4-0.1c-5.1-0.1-10.3-0.2-13.6-2.8l0,0c-0.7-1.6-1.5-3.5-2.4-5.5
				c-1.6-3.7-3.4-7.8-4.5-10.9c-1.1-3,2-7.6,4.5-11.3c0.7-1.1,1.3-2.1,1.9-3c0.2-0.3,0.2-0.7,0.1-1.1c-0.1-0.4-0.3-0.6-0.7-0.8
				c-1.1-0.6-1.9-1-2.7-1.5c-0.1,0-0.2-0.1-0.3-0.2c2.4-0.7,4.5-1.3,6.6-2c2-0.6,4-1.2,6.3-1.9l4.2,13.6l-3.1-1.7
				c-0.7-0.3-1.5-0.1-1.8,0.5c-0.8,1.4-1.8,3-2.8,4.8c-1.6,2.7-3.5,5.7-4.9,8.6l-0.1,0.1c-0.1,0.4-0.1,0.8,0.1,1.2
				c0.2,0.4,0.6,0.6,1,0.6L47.4,70.8L47.4,70.8z"/>
		</g>
		<g>
			<path d="M87.1,48.3c2.9,4.6,6.4,9.8,5.8,15c0,0.2-0.1,0.4-0.2,0.6c-0.1,0.1-0.1,0.2-0.2,0.4c-0.9,1.5-2,3.2-3.1,5.1
				c-2.2,3.6-4.5,7.3-6.4,10c-2.6,3.8-8.9,3.8-13.9,3.8c-0.7,0-1.3,0-2,0c0.1,0.6,0.1,1.1,0.1,1.6c0.1,1.1,0.2,2.1,0.4,3.7
				c0.1,0.6-0.2,1.1-0.7,1.3c-0.2,0.1-0.4,0.2-0.7,0.2c-0.3,0-0.6-0.1-0.9-0.3c-2.8-2.5-5.2-4.4-7.7-6.4c-2-1.6-3.9-3.2-6.2-5.1
				c-0.3-0.3-0.4-0.6-0.4-1c0-0.3,0.1-0.6,0.3-0.8l11.6-14.9c0.3-0.4,0.9-0.6,1.3-0.4c0.6,0.2,0.9,0.6,0.9,1.1l0.7,5.4
				c1.3-0.1,2.7-0.2,4.3-0.2c2.5-0.1,5.2-0.2,7.7-0.5l-7.5-13c-0.3-0.6-0.1-1.4,0.4-1.8l8.3-5.6l3.8-2.6c0.3-0.2,0.7-0.3,1-0.2
				c0.3,0.1,0.7,0.3,0.8,0.6C85.3,45.7,86.2,47,87.1,48.3L87.1,48.3z M90.4,62.7c0.3-4.2-2.6-8.6-5.4-12.9c-0.7-1-1.2-1.9-1.8-2.8
				l-9.9,6.7l7.9,13.7c0.2,0.4,0.2,0.9,0,1.3s-0.6,0.7-1,0.7c-3.4,0.4-6.8,0.6-10,0.8c-1.9,0.1-3.8,0.2-5.4,0.3
				c-0.7,0.1-1.3-0.4-1.5-1.2l-0.4-3.5l-8.8,11.1c1.8,1.5,3.5,2.9,5.2,4.2c1.7,1.4,3.4,2.8,5.3,4.3c0-0.1,0-0.3,0-0.4
				c-0.1-0.8-0.1-1.7-0.3-2.9c0-0.4,0.1-0.7,0.3-1c0.2-0.3,0.6-0.4,0.9-0.5c1-0.1,2.2-0.1,3.5-0.1c4.4,0,9.9-0.1,11.8-2.7
				c1.9-2.7,4.2-6.3,6.3-9.9C88.2,66,89.3,64.2,90.4,62.7L90.4,62.7L90.4,62.7z"/>
			<path d="M81.6,25.6c0.4,0.3,0.7,0.9,0.6,1.4c-0.8,3.7-1.3,6.8-1.9,10c-0.4,2.5-0.9,5-1.5,7.9c-0.1,0.3-0.2,0.6-0.4,0.8
				c-0.2,0.2-0.6,0.3-0.8,0.3c-0.1,0-0.1,0-0.2,0l-18.2-3.3c-0.6-0.1-0.9-0.5-1-1c-0.1-0.5,0.1-1.1,0.6-1.4l4.4-3.2
				c-0.7-1.1-1.5-2.4-2.2-3.7c-1.2-2.1-2.6-4.4-4-6.6l-7.7,12.9c-0.3,0.6-1.1,0.8-1.7,0.5l-7.4-4l-5.5-2.9c-0.3-0.2-0.6-0.5-0.7-0.8
				c-0.1-0.4,0-0.7,0.1-1.1c0.7-1.2,1.5-2.6,2.2-4C38.6,22.5,41.5,17,46.4,15c0.3-0.1,0.6-0.1,1-0.1c1.7,0.1,3.8,0.3,5.9,0.4
				c4.2,0.3,8.4,0.5,11.7,0.9c4.5,0.6,7.5,6.1,9.9,10.5c0.3,0.6,0.7,1.2,1,1.8c0.4-0.3,0.9-0.6,1.3-0.9c0.9-0.6,1.7-1.2,2.9-2.1
				C80.6,25.3,81.2,25.3,81.6,25.6L81.6,25.6z M78.9,29.7c-0.1,0.1-0.2,0.1-0.3,0.2c-0.7,0.5-1.5,1-2.5,1.7c-0.3,0.2-0.7,0.3-1,0.2
				c-0.3-0.1-0.7-0.3-0.9-0.6c-0.6-0.9-1.1-2-1.8-3.1c-2.1-3.9-4.7-8.8-7.9-9.2c-3.3-0.4-7.4-0.7-11.6-0.9c-2.1-0.1-4.3-0.3-6.1-0.4
				l0,0c-3.8,1.7-6.3,6.5-8.6,11c-0.6,1-1,2-1.6,2.9l10.6,5.7l8.1-13.5c0.2-0.4,0.7-0.6,1.1-0.6s0.9,0.2,1.1,0.6
				c1.9,2.7,3.7,5.7,5.3,8.3c1,1.7,2,3.4,2.9,4.7c0.4,0.6,0.2,1.4-0.3,1.8l-2.9,2L76.4,43c0.4-2.3,0.8-4.4,1.2-6.5
				C78.1,34.3,78.5,32.1,78.9,29.7L78.9,29.7z"/>
			<path d="M47.1,66.8c0.7,0.1,1.2,0.6,1.2,1.3L48.2,77L48,82.9c0,0.4-0.1,0.7-0.4,1c-0.2,0.2-0.6,0.4-0.9,0.4h-0.1
				c-1.5-0.1-2.9-0.1-4.6-0.2c-5.4-0.1-11.6-0.2-15.5-3.7c-0.1-0.1-0.2-0.3-0.3-0.5C26,79.8,26,79.6,26,79.5
				c-0.7-1.6-1.5-3.4-2.2-5.4c-1.7-3.9-3.4-7.9-4.5-11.1c-1.6-4.3,1.9-9.5,4.7-13.7c0.4-0.6,0.8-1.2,1.1-1.7c-0.6-0.3-1-0.6-1.5-0.8
				c-0.9-0.5-1.8-1-3.1-1.7c-0.4-0.2-0.8-0.8-0.7-1.3c0.1-0.5,0.4-1,1-1.1c3.6-1,6.6-1.9,9.7-2.9c2.4-0.7,4.8-1.5,7.5-2.2
				c0.3-0.1,0.7,0,0.9,0.1c0.3,0.2,0.6,0.4,0.7,0.8L45,56.4c0.1,0.5,0,1.1-0.4,1.4c-0.4,0.3-1,0.4-1.5,0.1l-4.8-2.5
				c-0.7,1.2-1.5,2.4-2.2,3.7c-1.2,2.1-2.7,4.4-3.9,6.7C32.3,65.7,47.1,66.8,47.1,66.8z M45.6,81.5l0.2-12.1l-15.6-1.2
				c-0.4,0-0.8-0.3-1-0.6c-0.2-0.4-0.2-0.8-0.1-1.2c0,0,0-0.1,0.1-0.1c1.5-3,3.4-6,4.9-8.6c1-1.7,2-3.3,2.8-4.8
				c0.3-0.6,1.1-0.9,1.8-0.5l3.1,1.7l-4.2-13.6c-2.2,0.6-4.3,1.3-6.3,1.9c-2.1,0.6-4.3,1.3-6.6,2c0.1,0.1,0.2,0.1,0.3,0.2
				c0.8,0.4,1.6,0.9,2.7,1.5c0.3,0.2,0.6,0.4,0.7,0.8c0.1,0.4,0,0.7-0.1,1.1c-0.6,0.9-1.2,1.9-1.9,3C24,54.7,21,59.3,22,62.3
				c1.1,3.1,2.9,7.3,4.5,10.9c0.9,2,1.7,3.9,2.4,5.5l0,0c3.3,2.6,8.5,2.7,13.6,2.8C43.3,81.4,44.4,81.4,45.6,81.5L45.6,81.5z"/>
		</g>
	</g>
</g>
</svg>
